<?xml version="1.0" encoding="UTF-8" standalone="no"?>
<!DOCTYPE svg PUBLIC "-//W3C//DTD SVG 1.1//EN"
 "http://www.w3.org/Graphics/SVG/1.1/DTD/svg11.dtd">
<!-- Generated by graphviz version 2.40.1 (0)
 -->
<!-- Title: %3 Pages: 1 -->
<svg width="88pt" height="152pt"
 viewBox="0.00 0.00 88.00 152.00" xmlns="http://www.w3.org/2000/svg" xmlns:xlink="http://www.w3.org/1999/xlink">
<g id="graph0" class="graph" transform="scale(1 1) rotate(0) translate(4 148)">
<title>%3</title>
<polygon fill="#ffffff" stroke="transparent" points="-4,4 -4,-148 84,-148 84,4 -4,4"/>
<!-- pyneat.Node object at 0x7f930ebbec50 -->
<g id="node1" class="node">
<title>pyneat.Node object at 0x7f930ebbec50</title>
<polygon fill="#d62728" stroke="#000000" points="62,-30 0,-30 0,-6 62,-6 62,0 80,-18 62,-36 62,-30"/>
<text text-anchor="middle" x="40" y="-14.3" font-family="Times,serif" font-size="14.00" fill="#000000">output_0</text>
</g>
<!-- pyneat.Node object at 0x7f930ebbecc0 -->
<g id="node2" class="node">
<title>pyneat.Node object at 0x7f930ebbecc0</title>
<polygon fill="#1f77b4" stroke="#000000" points="57,-84 5,-84 5,-60 57,-60 57,-54 75,-72 57,-90 57,-84"/>
<text text-anchor="middle" x="40" y="-68.3" font-family="Times,serif" font-size="14.00" fill="#000000">input_1</text>
</g>
<!-- pyneat.Node object at 0x7f930ebed080 -->
<g id="node3" class="node">
<title>pyneat.Node object at 0x7f930ebed080</title>
<polygon fill="#1f77b4" stroke="#000000" points="57,-138 5,-138 5,-114 57,-114 57,-108 75,-126 57,-144 57,-138"/>
<text text-anchor="middle" x="40" y="-122.3" font-family="Times,serif" font-size="14.00" fill="#000000">input_2</text>
</g>
</g>
</svg>
