<?xml version="1.0" encoding="UTF-8" standalone="no"?>
<!DOCTYPE svg PUBLIC "-//W3C//DTD SVG 1.1//EN"
 "http://www.w3.org/Graphics/SVG/1.1/DTD/svg11.dtd">
<!-- Generated by graphviz version 2.38.0 (20140413.2041)
 -->
<!-- Title: %3 Pages: 1 -->
<svg width="572pt" height="197pt"
 viewBox="0.00 0.00 572.00 197.41" xmlns="http://www.w3.org/2000/svg" xmlns:xlink="http://www.w3.org/1999/xlink">
<g id="graph0" class="graph" transform="scale(1 1) rotate(0) translate(4 193.414)">
<title>%3</title>
<polygon fill="white" stroke="none" points="-4,4 -4,-193.414 568,-193.414 568,4 -4,4"/>
<!-- pyneat.Node object at 0x7ffa2b7acc88 -->
<g id="node1" class="node"><title>pyneat.Node object at 0x7ffa2b7acc88</title>
<polygon fill="#d62728" stroke="black" points="62,-41.4136 0,-41.4136 0,-17.4136 62,-17.4136 62,-11.4136 80,-29.4136 62,-47.4136 62,-41.4136"/>
<text text-anchor="middle" x="40" y="-25.7136" font-family="Times,serif" font-size="14.00">output_0</text>
</g>
<!-- pyneat.Node object at 0x7ffa2b7ac390 -->
<g id="node2" class="node"><title>pyneat.Node object at 0x7ffa2b7ac390</title>
<polygon fill="#d62728" stroke="black" points="546,-138.414 484,-138.414 484,-114.414 546,-114.414 546,-108.414 564,-126.414 546,-144.414 546,-138.414"/>
<text text-anchor="middle" x="524" y="-122.714" font-family="Times,serif" font-size="14.00">output_1</text>
</g>
<!-- pyneat.Node object at 0x7ffa2b7ac048 -->
<g id="node3" class="node"><title>pyneat.Node object at 0x7ffa2b7ac048</title>
<polygon fill="#1f77b4" stroke="black" points="57.5,-149.414 4.5,-149.414 4.5,-125.414 57.5,-125.414 57.5,-119.414 75.5,-137.414 57.5,-155.414 57.5,-149.414"/>
<text text-anchor="middle" x="40" y="-133.714" font-family="Times,serif" font-size="14.00">input_2</text>
</g>
<!-- pyneat.Node object at 0x7ffa2b7acf60 -->
<g id="node4" class="node"><title>pyneat.Node object at 0x7ffa2b7acf60</title>
<polygon fill="#1f77b4" stroke="black" points="57.5,-95.4136 4.5,-95.4136 4.5,-71.4136 57.5,-71.4136 57.5,-65.4136 75.5,-83.4136 57.5,-101.414 57.5,-95.4136"/>
<text text-anchor="middle" x="40" y="-79.7136" font-family="Times,serif" font-size="14.00">input_3</text>
</g>
<!-- pyneat.Node object at 0x7ffa2b7acf60&#45;&gt;pyneat.Node object at 0x7ffa2b7ac390 -->
<g id="edge1" class="edge"><title>pyneat.Node object at 0x7ffa2b7acf60&#45;&gt;pyneat.Node object at 0x7ffa2b7ac390</title>
<path fill="none" stroke="black" d="M68.8793,-101.524C72.7249,-104.361 76.5383,-107.367 80,-110.414 88.9768,-118.315 87.6976,-124.341 98,-130.414 191.537,-185.546 230.684,-177.934 339,-170.414 396.306,-166.435 411.314,-163.997 466,-146.414 468.714,-145.541 471.495,-144.628 474.297,-143.693"/>
<polygon fill="black" stroke="black" points="475.496,-146.982 483.844,-140.458 473.249,-140.353 475.496,-146.982"/>
<text text-anchor="middle" x="305" y="-178.214" font-family="Times,serif" font-size="14.00">0.076472</text>
</g>
<!-- pyneat.Node object at 0x7ffa2b7acbe0 -->
<g id="node5" class="node"><title>pyneat.Node object at 0x7ffa2b7acbe0</title>
<ellipse fill="#2ca02c" stroke="black" cx="216.5" cy="-47.4136" rx="27" ry="18"/>
</g>
<!-- pyneat.Node object at 0x7ffa2b7acf60&#45;&gt;pyneat.Node object at 0x7ffa2b7acbe0 -->
<g id="edge2" class="edge"><title>pyneat.Node object at 0x7ffa2b7acf60&#45;&gt;pyneat.Node object at 0x7ffa2b7acbe0</title>
<path fill="none" stroke="black" d="M75.8933,-76.215C106.232,-69.956 149.973,-60.932 180.379,-54.6592"/>
<polygon fill="black" stroke="black" points="181.447,-58.0126 190.534,-52.5642 180.033,-51.157 181.447,-58.0126"/>
<text text-anchor="middle" x="130" y="-75.2136" font-family="Times,serif" font-size="14.00">&#45;0.14683</text>
</g>
<!-- pyneat.Node object at 0x7ffa2b7acd30 -->
<g id="node6" class="node"><title>pyneat.Node object at 0x7ffa2b7acd30</title>
<ellipse fill="#2ca02c" stroke="black" cx="305" cy="-143.414" rx="27" ry="18"/>
</g>
<!-- pyneat.Node object at 0x7ffa2b7acf60&#45;&gt;pyneat.Node object at 0x7ffa2b7acd30 -->
<g id="edge3" class="edge"><title>pyneat.Node object at 0x7ffa2b7acf60&#45;&gt;pyneat.Node object at 0x7ffa2b7acd30</title>
<path fill="none" stroke="black" d="M75.6531,-91.3193C126.024,-102.811 218.936,-124.007 269.321,-135.502"/>
<polygon fill="black" stroke="black" points="268.573,-138.921 279.101,-137.733 270.13,-132.097 268.573,-138.921"/>
<text text-anchor="middle" x="130" y="-115.214" font-family="Times,serif" font-size="14.00">&#45;0.01606</text>
</g>
<!-- pyneat.Node object at 0x7ffa2b7ac1d0 -->
<g id="node7" class="node"><title>pyneat.Node object at 0x7ffa2b7ac1d0</title>
<ellipse fill="#2ca02c" stroke="black" cx="391" cy="-47.4136" rx="27" ry="18"/>
</g>
<!-- pyneat.Node object at 0x7ffa2b7acf60&#45;&gt;pyneat.Node object at 0x7ffa2b7ac1d0 -->
<g id="edge4" class="edge"><title>pyneat.Node object at 0x7ffa2b7acf60&#45;&gt;pyneat.Node object at 0x7ffa2b7ac1d0</title>
<path fill="none" stroke="black" d="M69.2254,-65.3056C102.78,-44.1893 157.11,-11.3972 180,-5.41361 243.274,11.1263 318.739,-14.8917 359.771,-32.7929"/>
<polygon fill="black" stroke="black" points="358.395,-36.0117 368.951,-36.9157 361.263,-29.6261 358.395,-36.0117"/>
<text text-anchor="middle" x="216.5" y="-9.21361" font-family="Times,serif" font-size="14.00">&#45;0.006262</text>
</g>
<!-- pyneat.Node object at 0x7ffa2b7acbe0&#45;&gt;pyneat.Node object at 0x7ffa2b7ac390 -->
<g id="edge5" class="edge"><title>pyneat.Node object at 0x7ffa2b7acbe0&#45;&gt;pyneat.Node object at 0x7ffa2b7ac390</title>
<path fill="none" stroke="black" d="M240.233,-56.0955C249.675,-59.542 260.792,-63.3952 271,-66.4136 340.745,-87.0362 422.936,-105.547 474.016,-116.385"/>
<polygon fill="black" stroke="black" points="473.297,-119.81 483.804,-118.449 474.741,-112.961 473.297,-119.81"/>
<text text-anchor="middle" x="391" y="-110.214" font-family="Times,serif" font-size="14.00">0.185379</text>
</g>
<!-- pyneat.Node object at 0x7ffa2b7acbe0&#45;&gt;pyneat.Node object at 0x7ffa2b7ac1d0 -->
<g id="edge6" class="edge"><title>pyneat.Node object at 0x7ffa2b7acbe0&#45;&gt;pyneat.Node object at 0x7ffa2b7ac1d0</title>
<path fill="none" stroke="black" d="M243.699,-47.4136C273.04,-47.4136 320.788,-47.4136 353.711,-47.4136"/>
<polygon fill="black" stroke="black" points="353.838,-50.9137 363.838,-47.4136 353.838,-43.9137 353.838,-50.9137"/>
<text text-anchor="middle" x="305" y="-51.2136" font-family="Times,serif" font-size="14.00">0.183345</text>
</g>
<!-- pyneat.Node object at 0x7ffa2b7acd30&#45;&gt;pyneat.Node object at 0x7ffa2b7ac390 -->
<g id="edge7" class="edge"><title>pyneat.Node object at 0x7ffa2b7acd30&#45;&gt;pyneat.Node object at 0x7ffa2b7ac390</title>
<path fill="none" stroke="black" d="M332.175,-141.363C367.136,-138.624 429.759,-133.718 473.705,-130.275"/>
<polygon fill="black" stroke="black" points="474.194,-133.748 483.89,-129.477 473.648,-126.769 474.194,-133.748"/>
<text text-anchor="middle" x="391" y="-143.214" font-family="Times,serif" font-size="14.00">1.0</text>
</g>
<!-- pyneat.Node object at 0x7ffa2b7ac1d0&#45;&gt;pyneat.Node object at 0x7ffa2b7ac390 -->
<g id="edge8" class="edge"><title>pyneat.Node object at 0x7ffa2b7ac1d0&#45;&gt;pyneat.Node object at 0x7ffa2b7ac390</title>
<path fill="none" stroke="black" d="M416.815,-52.9189C431.762,-56.9169 450.782,-63.2485 466,-72.4136 478.655,-80.0355 490.811,-90.8817 500.622,-100.856"/>
<polygon fill="black" stroke="black" points="498.214,-103.403 507.637,-108.246 503.291,-98.5841 498.214,-103.403"/>
<text text-anchor="middle" x="454.5" y="-76.2136" font-family="Times,serif" font-size="14.00">1.0</text>
</g>
</g>
</svg>
