<?xml version="1.0" encoding="UTF-8" standalone="no"?>
<!DOCTYPE svg PUBLIC "-//W3C//DTD SVG 1.1//EN"
 "http://www.w3.org/Graphics/SVG/1.1/DTD/svg11.dtd">
<!-- Generated by graphviz version 2.40.1 (0)
 -->
<!-- Title: %3 Pages: 1 -->
<svg width="626pt" height="249pt"
 viewBox="0.00 0.00 626.44 248.92" xmlns="http://www.w3.org/2000/svg" xmlns:xlink="http://www.w3.org/1999/xlink">
<g id="graph0" class="graph" transform="scale(1 1) rotate(0) translate(4 244.924)">
<title>%3</title>
<polygon fill="#ffffff" stroke="transparent" points="-4,4 -4,-244.924 622.4427,-244.924 622.4427,4 -4,4"/>
<!-- __main__.Node object at 0x7f3cc0540be0 -->
<g id="node1" class="node">
<title>__main__.Node object at 0x7f3cc0540be0</title>
<polygon fill="none" stroke="#000000" points="496.6645,-164.8622 416.4951,-164.8622 391.7214,-241.02 366.9476,-164.8622 286.7782,-164.8622 351.6366,-117.794 326.8629,-41.6361 391.7214,-88.7043 456.5798,-41.6361 431.8061,-117.794 496.6645,-164.8622"/>
<text text-anchor="middle" x="391.7214" y="-137.6281" font-family="Times,serif" font-size="14.00" fill="#000000">output_0</text>
</g>
<!-- __main__.Node object at 0x7f3cb3ba9588 -->
<g id="node5" class="node">
<title>__main__.Node object at 0x7f3cb3ba9588</title>
<ellipse fill="none" stroke="#000000" cx="591.4427" cy="-103.3281" rx="27" ry="18"/>
</g>
<!-- __main__.Node object at 0x7f3cc0540be0&#45;&gt;__main__.Node object at 0x7f3cb3ba9588 -->
<g id="edge1" class="edge">
<title>__main__.Node object at 0x7f3cc0540be0&#45;&gt;__main__.Node object at 0x7f3cb3ba9588</title>
<path fill="none" stroke="#000000" d="M455.881,-135.1263C483.9311,-131.6668 517.0684,-126.561 546.4427,-119.3281 550.3173,-118.374 554.3255,-117.2132 558.28,-115.9572"/>
<polygon fill="#000000" stroke="#000000" points="559.5438,-119.2245 567.893,-112.702 557.2987,-112.5943 559.5438,-119.2245"/>
<text text-anchor="middle" x="530.4427" y="-130.1281" font-family="Times,serif" font-size="14.00" fill="#000000">0.13</text>
</g>
<!-- __main__.Node object at 0x7f3cc0540ba8 -->
<g id="node2" class="node">
<title>__main__.Node object at 0x7f3cc0540ba8</title>
<polygon fill="none" stroke="#000000" points="179,-145.3281 127,-145.3281 127,-121.3281 179,-121.3281 179,-115.3281 197,-133.3281 179,-151.3281 179,-145.3281"/>
<text text-anchor="middle" x="162" y="-129.6281" font-family="Times,serif" font-size="14.00" fill="#000000">input_1</text>
</g>
<!-- __main__.Node object at 0x7f3cc0540ba8&#45;&gt;__main__.Node object at 0x7f3cc0540be0 -->
<g id="edge2" class="edge">
<title>__main__.Node object at 0x7f3cc0540ba8&#45;&gt;__main__.Node object at 0x7f3cc0540be0</title>
<path fill="none" stroke="#000000" d="M197.1398,-134.5518C227.6641,-135.6148 273.0105,-137.194 312.25,-138.5605"/>
<polygon fill="#000000" stroke="#000000" points="312.2288,-142.0618 322.3446,-138.912 312.4725,-135.066 312.2288,-142.0618"/>
<text text-anchor="middle" x="242" y="-141.1281" font-family="Times,serif" font-size="14.00" fill="#000000">&#45;0.24</text>
</g>
<!-- __main__.Node object at 0x7f3cb4d70cf8 -->
<g id="node4" class="node">
<title>__main__.Node object at 0x7f3cb4d70cf8</title>
<ellipse fill="none" stroke="#000000" cx="27" cy="-95.3281" rx="27" ry="18"/>
</g>
<!-- __main__.Node object at 0x7f3cc0540ba8&#45;&gt;__main__.Node object at 0x7f3cb4d70cf8 -->
<g id="edge3" class="edge">
<title>__main__.Node object at 0x7f3cc0540ba8&#45;&gt;__main__.Node object at 0x7f3cb4d70cf8</title>
<path fill="none" stroke="#000000" d="M141.9156,-115.0262C132.6064,-107.7346 120.9661,-100.1721 109,-96.3281 94.6021,-91.7029 78.0353,-90.7437 63.5781,-91.2046"/>
<polygon fill="#000000" stroke="#000000" points="63.2779,-87.7157 53.485,-91.759 63.6619,-94.7052 63.2779,-87.7157"/>
<text text-anchor="middle" x="90.5" y="-100.1281" font-family="Times,serif" font-size="14.00" fill="#000000">&#45;0.8</text>
</g>
<!-- __main__.Node object at 0x7f3cb3bb6978 -->
<g id="node3" class="node">
<title>__main__.Node object at 0x7f3cb3bb6978</title>
<polygon fill="none" stroke="#000000" points="179,-199.3281 127,-199.3281 127,-175.3281 179,-175.3281 179,-169.3281 197,-187.3281 179,-205.3281 179,-199.3281"/>
<text text-anchor="middle" x="162" y="-183.6281" font-family="Times,serif" font-size="14.00" fill="#000000">input_2</text>
</g>
<!-- __main__.Node object at 0x7f3cb4d70cf8&#45;&gt;__main__.Node object at 0x7f3cc0540ba8 -->
<g id="edge4" class="edge">
<title>__main__.Node object at 0x7f3cb4d70cf8&#45;&gt;__main__.Node object at 0x7f3cc0540ba8</title>
<path fill="none" stroke="#000000" d="M50.6718,-104.2541C57.5075,-106.6927 65.0095,-109.2368 72,-111.3281 86.3845,-115.6313 102.2447,-119.7213 116.592,-123.1814"/>
<polygon fill="#000000" stroke="#000000" points="116.1914,-126.6834 126.729,-125.5837 117.8056,-119.872 116.1914,-126.6834"/>
<text text-anchor="middle" x="90.5" y="-125.1281" font-family="Times,serif" font-size="14.00" fill="#000000">&#45;0.88</text>
</g>
<!-- __main__.Node object at 0x7f3cb0d5a3c8 -->
<g id="node7" class="node">
<title>__main__.Node object at 0x7f3cb0d5a3c8</title>
<ellipse fill="none" stroke="#000000" cx="242" cy="-22.3281" rx="27" ry="18"/>
</g>
<!-- __main__.Node object at 0x7f3cb4d70cf8&#45;&gt;__main__.Node object at 0x7f3cb0d5a3c8 -->
<g id="edge5" class="edge">
<title>__main__.Node object at 0x7f3cb4d70cf8&#45;&gt;__main__.Node object at 0x7f3cb0d5a3c8</title>
<path fill="none" stroke="#000000" d="M47.6855,-83.7337C55.2004,-79.7967 63.8497,-75.5765 72,-72.3281 117.3877,-54.2378 171.8906,-39.3492 206.7291,-30.6524"/>
<polygon fill="#000000" stroke="#000000" points="207.5702,-34.05 216.4435,-28.2609 205.8968,-27.2529 207.5702,-34.05"/>
<text text-anchor="middle" x="90.5" y="-76.1281" font-family="Times,serif" font-size="14.00" fill="#000000">0.08</text>
</g>
<!-- __main__.Node object at 0x7f3cb3ba9588&#45;&gt;__main__.Node object at 0x7f3cc0540be0 -->
<g id="edge6" class="edge">
<title>__main__.Node object at 0x7f3cb3ba9588&#45;&gt;__main__.Node object at 0x7f3cc0540be0</title>
<path fill="none" stroke="#000000" d="M564.3298,-101.2275C558.4367,-100.8529 552.2336,-100.5209 546.4427,-100.3281 532.2284,-99.8548 528.4805,-98.0452 514.4427,-100.3281 491.9523,-103.9856 468.0175,-111.1817 447.3139,-118.5379"/>
<polygon fill="#000000" stroke="#000000" points="445.9335,-115.3158 437.7391,-122.0316 448.333,-121.8917 445.9335,-115.3158"/>
<text text-anchor="middle" x="530.4427" y="-104.1281" font-family="Times,serif" font-size="14.00" fill="#000000">0.19</text>
</g>
<!-- __main__.Node object at 0x7f3cb13dd198 -->
<g id="node6" class="node">
<title>__main__.Node object at 0x7f3cb13dd198</title>
<ellipse fill="none" stroke="#000000" cx="27" cy="-187.3281" rx="27" ry="18"/>
</g>
<!-- __main__.Node object at 0x7f3cb13dd198&#45;&gt;__main__.Node object at 0x7f3cb3bb6978 -->
<g id="edge7" class="edge">
<title>__main__.Node object at 0x7f3cb13dd198&#45;&gt;__main__.Node object at 0x7f3cb3bb6978</title>
<path fill="none" stroke="#000000" d="M54.3193,-187.3281C72.1809,-187.3281 95.9444,-187.3281 116.603,-187.3281"/>
<polygon fill="#000000" stroke="#000000" points="116.7645,-190.8282 126.7645,-187.3281 116.7644,-183.8282 116.7645,-190.8282"/>
<text text-anchor="middle" x="90.5" y="-191.1281" font-family="Times,serif" font-size="14.00" fill="#000000">0.66</text>
</g>
<!-- __main__.Node object at 0x7f3cb0d5a3c8&#45;&gt;__main__.Node object at 0x7f3cb3ba9588 -->
<g id="edge8" class="edge">
<title>__main__.Node object at 0x7f3cb0d5a3c8&#45;&gt;__main__.Node object at 0x7f3cb3ba9588</title>
<path fill="none" stroke="#000000" d="M267.282,-15.7412C314.2801,-4.7935 417.4934,13.099 496.4427,-17.3281 528.3304,-29.6176 556.1547,-58.1226 573.311,-78.9585"/>
<polygon fill="#000000" stroke="#000000" points="570.5909,-81.1611 579.5638,-86.7947 576.0625,-76.7952 570.5909,-81.1611"/>
<text text-anchor="middle" x="391.7214" y="-21.1281" font-family="Times,serif" font-size="14.00" fill="#000000">0.07</text>
</g>
</g>
</svg>
