<?xml version="1.0" encoding="UTF-8" standalone="no"?>
<!DOCTYPE svg PUBLIC "-//W3C//DTD SVG 1.1//EN"
 "http://www.w3.org/Graphics/SVG/1.1/DTD/svg11.dtd">
<!-- Generated by graphviz version 2.40.1 (0)
 -->
<!-- Title: %3 Pages: 1 -->
<svg width="1012pt" height="377pt"
 viewBox="0.00 0.00 1012.44 377.04" xmlns="http://www.w3.org/2000/svg" xmlns:xlink="http://www.w3.org/1999/xlink">
<g id="graph0" class="graph" transform="scale(1 1) rotate(0) translate(4 373.0375)">
<title>%3</title>
<polygon fill="#ffffff" stroke="transparent" points="-4,4 -4,-373.0375 1008.4427,-373.0375 1008.4427,4 -4,4"/>
<!-- pyneat.Node object at 0x7ff0354080f0 -->
<g id="node1" class="node">
<title>pyneat.Node object at 0x7ff0354080f0</title>
<polygon fill="none" stroke="#000000" points="601.6645,-201.5716 521.4951,-201.5716 496.7214,-277.7294 471.9476,-201.5716 391.7782,-201.5716 456.6366,-154.5034 431.8629,-78.3455 496.7214,-125.4137 561.5798,-78.3455 536.8061,-154.5034 601.6645,-201.5716"/>
<text text-anchor="middle" x="496.7214" y="-174.3375" font-family="Times,serif" font-size="14.00" fill="#000000">output_0</text>
</g>
<!-- pyneat.Node object at 0x7ff0354086a0 -->
<g id="node10" class="node">
<title>pyneat.Node object at 0x7ff0354086a0</title>
<ellipse fill="none" stroke="#000000" cx="701.4427" cy="-178.0375" rx="27" ry="18"/>
</g>
<!-- pyneat.Node object at 0x7ff0354080f0&#45;&gt;pyneat.Node object at 0x7ff0354086a0 -->
<g id="edge1" class="edge">
<title>pyneat.Node object at 0x7ff0354080f0&#45;&gt;pyneat.Node object at 0x7ff0354086a0</title>
<path fill="none" stroke="#000000" d="M569.1866,-178.0375C601.2336,-178.0375 637.5661,-178.0375 664.0304,-178.0375"/>
<polygon fill="#000000" stroke="#000000" points="664.37,-181.5376 674.37,-178.0375 664.3699,-174.5376 664.37,-181.5376"/>
<text text-anchor="middle" x="637.9427" y="-181.8375" font-family="Times,serif" font-size="14.00" fill="#000000">&#45;0.35</text>
</g>
<!-- pyneat.Node object at 0x7ff035408278 -->
<g id="node2" class="node">
<title>pyneat.Node object at 0x7ff035408278</title>
<polygon fill="none" stroke="#000000" points="848.4427,-231.0375 796.4427,-231.0375 796.4427,-207.0375 848.4427,-207.0375 848.4427,-201.0375 866.4427,-219.0375 848.4427,-237.0375 848.4427,-231.0375"/>
<text text-anchor="middle" x="831.4427" y="-215.3375" font-family="Times,serif" font-size="14.00" fill="#000000">input_1</text>
</g>
<!-- pyneat.Node object at 0x7ff035408518 -->
<g id="node3" class="node">
<title>pyneat.Node object at 0x7ff035408518</title>
<polygon fill="none" stroke="#000000" points="986.4427,-78.0375 934.4427,-78.0375 934.4427,-54.0375 986.4427,-54.0375 986.4427,-48.0375 1004.4427,-66.0375 986.4427,-84.0375 986.4427,-78.0375"/>
<text text-anchor="middle" x="969.4427" y="-62.3375" font-family="Times,serif" font-size="14.00" fill="#000000">input_2</text>
</g>
<!-- pyneat.Node object at 0x7ff035408550 -->
<g id="node4" class="node">
<title>pyneat.Node object at 0x7ff035408550</title>
<polygon fill="none" stroke="#000000" points="301,-270.0375 249,-270.0375 249,-246.0375 301,-246.0375 301,-240.0375 319,-258.0375 301,-276.0375 301,-270.0375"/>
<text text-anchor="middle" x="284" y="-254.3375" font-family="Times,serif" font-size="14.00" fill="#000000">input_3</text>
</g>
<!-- pyneat.Node object at 0x7ff035408550&#45;&gt;pyneat.Node object at 0x7ff0354080f0 -->
<g id="edge2" class="edge">
<title>pyneat.Node object at 0x7ff035408550&#45;&gt;pyneat.Node object at 0x7ff0354080f0</title>
<path fill="none" stroke="#000000" d="M319.1266,-244.8271C347.7245,-234.072 389.0382,-218.5348 424.6232,-205.1521"/>
<polygon fill="#000000" stroke="#000000" points="425.8847,-208.4171 434.0126,-201.6209 423.4206,-201.8651 425.8847,-208.4171"/>
<text text-anchor="middle" x="355.5" y="-239.8375" font-family="Times,serif" font-size="14.00" fill="#000000">0.18</text>
</g>
<!-- pyneat.Node object at 0x7ff035408588 -->
<g id="node5" class="node">
<title>pyneat.Node object at 0x7ff035408588</title>
<polygon fill="none" stroke="#000000" points="513.7214,-326.0375 461.7214,-326.0375 461.7214,-302.0375 513.7214,-302.0375 513.7214,-296.0375 531.7214,-314.0375 513.7214,-332.0375 513.7214,-326.0375"/>
<text text-anchor="middle" x="496.7214" y="-310.3375" font-family="Times,serif" font-size="14.00" fill="#000000">input_4</text>
</g>
<!-- pyneat.Node object at 0x7ff035408550&#45;&gt;pyneat.Node object at 0x7ff035408588 -->
<g id="edge3" class="edge">
<title>pyneat.Node object at 0x7ff035408550&#45;&gt;pyneat.Node object at 0x7ff035408588</title>
<path fill="none" stroke="#000000" d="M319.4852,-267.6616C340.546,-273.3498 367.7803,-280.6637 392,-287.0375 411.4565,-292.1578 432.9729,-297.7222 451.4158,-302.4618"/>
<polygon fill="#000000" stroke="#000000" points="450.7568,-305.9061 461.313,-305.002 452.4971,-299.1258 450.7568,-305.9061"/>
<text text-anchor="middle" x="355.5" y="-284.8375" font-family="Times,serif" font-size="14.00" fill="#000000">&#45;0.17</text>
</g>
<!-- pyneat.Node object at 0x7ff0354085f8 -->
<g id="node7" class="node">
<title>pyneat.Node object at 0x7ff0354085f8</title>
<ellipse fill="none" stroke="#000000" cx="831.4427" cy="-314.0375" rx="27" ry="18"/>
</g>
<!-- pyneat.Node object at 0x7ff035408550&#45;&gt;pyneat.Node object at 0x7ff0354085f8 -->
<g id="edge4" class="edge">
<title>pyneat.Node object at 0x7ff035408550&#45;&gt;pyneat.Node object at 0x7ff0354085f8</title>
<path fill="none" stroke="#000000" d="M300.1445,-276.2836C319.5645,-296.6931 354.2927,-328.5294 392,-341.0375 533.9255,-388.1162 579.3829,-352.8869 728.4427,-341.0375 750.8768,-339.2541 756.6455,-338.6366 778.4427,-333.0375 785.1217,-331.3218 792.1444,-329.1089 798.8143,-326.803"/>
<polygon fill="#000000" stroke="#000000" points="800.0293,-330.0855 808.2527,-323.4052 797.6583,-323.4993 800.0293,-330.0855"/>
<text text-anchor="middle" x="637.9427" y="-357.8375" font-family="Times,serif" font-size="14.00" fill="#000000">&#45;0.15</text>
</g>
<!-- pyneat.Node object at 0x7ff035408588&#45;&gt;pyneat.Node object at 0x7ff035408278 -->
<g id="edge5" class="edge">
<title>pyneat.Node object at 0x7ff035408588&#45;&gt;pyneat.Node object at 0x7ff035408278</title>
<path fill="none" stroke="#000000" d="M532.1892,-305.2224C552.5088,-300.0899 578.4612,-293.3952 601.4427,-287.0375 665.9377,-269.1951 740.0978,-246.9563 786.3714,-232.8724"/>
<polygon fill="#000000" stroke="#000000" points="787.5475,-236.173 796.0922,-229.9088 785.5061,-229.4772 787.5475,-236.173"/>
<text text-anchor="middle" x="701.4427" y="-268.8375" font-family="Times,serif" font-size="14.00" fill="#000000">&#45;0.6</text>
</g>
<!-- pyneat.Node object at 0x7ff0354086d8 -->
<g id="node11" class="node">
<title>pyneat.Node object at 0x7ff0354086d8</title>
<ellipse fill="none" stroke="#000000" cx="701.4427" cy="-314.0375" rx="27" ry="18"/>
</g>
<!-- pyneat.Node object at 0x7ff035408588&#45;&gt;pyneat.Node object at 0x7ff0354086d8 -->
<g id="edge6" class="edge">
<title>pyneat.Node object at 0x7ff035408588&#45;&gt;pyneat.Node object at 0x7ff0354086d8</title>
<path fill="none" stroke="#000000" d="M531.9142,-314.0375C568.8018,-314.0375 626.5253,-314.0375 664.1729,-314.0375"/>
<polygon fill="#000000" stroke="#000000" points="664.2251,-317.5376 674.2251,-314.0375 664.225,-310.5376 664.2251,-317.5376"/>
<text text-anchor="middle" x="637.9427" y="-317.8375" font-family="Times,serif" font-size="14.00" fill="#000000">0.85</text>
</g>
<!-- pyneat.Node object at 0x7ff0354085c0 -->
<g id="node6" class="node">
<title>pyneat.Node object at 0x7ff0354085c0</title>
<polygon fill="none" stroke="#000000" points="301,-190.0375 249,-190.0375 249,-166.0375 301,-166.0375 301,-160.0375 319,-178.0375 301,-196.0375 301,-190.0375"/>
<text text-anchor="middle" x="284" y="-174.3375" font-family="Times,serif" font-size="14.00" fill="#000000">input_5</text>
</g>
<!-- pyneat.Node object at 0x7ff0354085c0&#45;&gt;pyneat.Node object at 0x7ff0354080f0 -->
<g id="edge7" class="edge">
<title>pyneat.Node object at 0x7ff0354085c0&#45;&gt;pyneat.Node object at 0x7ff0354080f0</title>
<path fill="none" stroke="#000000" d="M319.1266,-178.0375C344.8998,-178.0375 381.0008,-178.0375 413.9286,-178.0375"/>
<polygon fill="#000000" stroke="#000000" points="414.0308,-181.5376 424.0307,-178.0375 414.0307,-174.5376 414.0308,-181.5376"/>
<text text-anchor="middle" x="355.5" y="-181.8375" font-family="Times,serif" font-size="14.00" fill="#000000">&#45;0.36</text>
</g>
<!-- pyneat.Node object at 0x7ff0354085f8&#45;&gt;pyneat.Node object at 0x7ff035408518 -->
<g id="edge8" class="edge">
<title>pyneat.Node object at 0x7ff0354085f8&#45;&gt;pyneat.Node object at 0x7ff035408518</title>
<path fill="none" stroke="#000000" d="M840.928,-296.9914C864.4893,-254.6494 925.8324,-144.4096 954.3986,-93.0733"/>
<polygon fill="#000000" stroke="#000000" points="957.5305,-94.643 959.3346,-84.2028 951.4137,-91.2392 957.5305,-94.643"/>
<text text-anchor="middle" x="900.4427" y="-215.8375" font-family="Times,serif" font-size="14.00" fill="#000000">0.75</text>
</g>
<!-- pyneat.Node object at 0x7ff035408630 -->
<g id="node8" class="node">
<title>pyneat.Node object at 0x7ff035408630</title>
<ellipse fill="none" stroke="#000000" cx="27" cy="-23.0375" rx="27" ry="18"/>
</g>
<!-- pyneat.Node object at 0x7ff035408668 -->
<g id="node9" class="node">
<title>pyneat.Node object at 0x7ff035408668</title>
<ellipse fill="none" stroke="#000000" cx="149" cy="-53.0375" rx="27" ry="18"/>
</g>
<!-- pyneat.Node object at 0x7ff035408630&#45;&gt;pyneat.Node object at 0x7ff035408668 -->
<g id="edge9" class="edge">
<title>pyneat.Node object at 0x7ff035408630&#45;&gt;pyneat.Node object at 0x7ff035408668</title>
<path fill="none" stroke="#000000" d="M52.5752,-29.3265C70.3062,-33.6865 94.1482,-39.5493 113.6878,-44.3542"/>
<polygon fill="#000000" stroke="#000000" points="112.912,-47.7676 123.4585,-46.7568 114.5835,-40.9701 112.912,-47.7676"/>
<text text-anchor="middle" x="88" y="-45.8375" font-family="Times,serif" font-size="14.00" fill="#000000">0.61</text>
</g>
<!-- pyneat.Node object at 0x7ff035408630&#45;&gt;pyneat.Node object at 0x7ff0354086a0 -->
<g id="edge10" class="edge">
<title>pyneat.Node object at 0x7ff035408630&#45;&gt;pyneat.Node object at 0x7ff0354086a0</title>
<path fill="none" stroke="#000000" d="M53.0488,-17.6206C77.6619,-12.9789 115.6754,-7.0375 149,-7.0375 149,-7.0375 149,-7.0375 496.7214,-7.0375 568.3196,-7.0375 601.9143,18.3625 656.4427,-28.0375 674.991,-43.8208 689.6173,-110.977 696.7268,-149.8715"/>
<polygon fill="#000000" stroke="#000000" points="693.3354,-150.792 698.5297,-160.0262 700.2276,-149.5683 693.3354,-150.792"/>
<text text-anchor="middle" x="284" y="-10.8375" font-family="Times,serif" font-size="14.00" fill="#000000">0.38</text>
</g>
<!-- pyneat.Node object at 0x7ff035408668&#45;&gt;pyneat.Node object at 0x7ff035408518 -->
<g id="edge11" class="edge">
<title>pyneat.Node object at 0x7ff035408668&#45;&gt;pyneat.Node object at 0x7ff035408518</title>
<path fill="none" stroke="#000000" d="M176.1465,-52.08C203.4046,-51.202 246.608,-50.0375 284,-50.0375 284,-50.0375 284,-50.0375 831.4427,-50.0375 862.6672,-50.0375 897.6028,-54.1293 924.5108,-58.1744"/>
<polygon fill="#000000" stroke="#000000" points="923.9868,-61.6349 934.406,-59.7138 925.0629,-54.7181 923.9868,-61.6349"/>
<text text-anchor="middle" x="637.9427" y="-53.8375" font-family="Times,serif" font-size="14.00" fill="#000000">0.4</text>
</g>
<!-- pyneat.Node object at 0x7ff035408668&#45;&gt;pyneat.Node object at 0x7ff035408550 -->
<g id="edge12" class="edge">
<title>pyneat.Node object at 0x7ff035408668&#45;&gt;pyneat.Node object at 0x7ff035408550</title>
<path fill="none" stroke="#000000" d="M160.0889,-69.9133C178.528,-97.9706 216.6659,-155.9821 249,-205.0375 254.6749,-213.6471 260.8742,-223.039 266.4575,-231.4927"/>
<polygon fill="#000000" stroke="#000000" points="263.5729,-233.476 272.0051,-239.8907 269.4136,-229.6177 263.5729,-233.476"/>
<text text-anchor="middle" x="212.5" y="-179.8375" font-family="Times,serif" font-size="14.00" fill="#000000">&#45;0.22</text>
</g>
<!-- pyneat.Node object at 0x7ff0354086a0&#45;&gt;pyneat.Node object at 0x7ff035408278 -->
<g id="edge13" class="edge">
<title>pyneat.Node object at 0x7ff0354086a0&#45;&gt;pyneat.Node object at 0x7ff035408278</title>
<path fill="none" stroke="#000000" d="M725.8947,-185.7493C742.9607,-191.1316 766.2358,-198.4722 786.5872,-204.8907"/>
<polygon fill="#000000" stroke="#000000" points="785.7133,-208.285 796.303,-207.9549 787.8188,-201.6091 785.7133,-208.285"/>
<text text-anchor="middle" x="762.4427" y="-205.8375" font-family="Times,serif" font-size="14.00" fill="#000000">0.57</text>
</g>
<!-- pyneat.Node object at 0x7ff0354086d8&#45;&gt;pyneat.Node object at 0x7ff0354085f8 -->
<g id="edge14" class="edge">
<title>pyneat.Node object at 0x7ff0354086d8&#45;&gt;pyneat.Node object at 0x7ff0354085f8</title>
<path fill="none" stroke="#000000" d="M728.695,-314.0375C747.6754,-314.0375 773.2273,-314.0375 794.1012,-314.0375"/>
<polygon fill="#000000" stroke="#000000" points="794.2264,-317.5376 804.2263,-314.0375 794.2263,-310.5376 794.2264,-317.5376"/>
<text text-anchor="middle" x="762.4427" y="-317.8375" font-family="Times,serif" font-size="14.00" fill="#000000">&#45;0.8</text>
</g>
</g>
</svg>
