<?xml version="1.0" encoding="UTF-8" standalone="no"?>
<!DOCTYPE svg PUBLIC "-//W3C//DTD SVG 1.1//EN"
 "http://www.w3.org/Graphics/SVG/1.1/DTD/svg11.dtd">
<!-- Generated by graphviz version 2.40.1 (0)
 -->
<!-- Title: %3 Pages: 1 -->
<svg width="1344pt" height="1256pt"
 viewBox="0.00 0.00 1344.00 1256.30" xmlns="http://www.w3.org/2000/svg" xmlns:xlink="http://www.w3.org/1999/xlink">
<g id="graph0" class="graph" transform="scale(1 1) rotate(0) translate(4 1252.3014)">
<title>%3</title>
<polygon fill="#ffffff" stroke="transparent" points="-4,4 -4,-1252.3014 1340,-1252.3014 1340,4 -4,4"/>
<!-- __main__.Node object at 0x7f2f01865ef0 -->
<g id="node1" class="node">
<title>__main__.Node object at 0x7f2f01865ef0</title>
<polygon fill="#d62728" stroke="#000000" points="1318,-782.3014 1256,-782.3014 1256,-758.3014 1318,-758.3014 1318,-752.3014 1336,-770.3014 1318,-788.3014 1318,-782.3014"/>
<text text-anchor="middle" x="1296" y="-766.6014" font-family="Times,serif" font-size="14.00" fill="#000000">output_0</text>
</g>
<!-- __main__.Node object at 0x7f2f01859668 -->
<g id="node2" class="node">
<title>__main__.Node object at 0x7f2f01859668</title>
<polygon fill="#1f77b4" stroke="#000000" points="52,-683.3014 0,-683.3014 0,-659.3014 52,-659.3014 52,-653.3014 70,-671.3014 52,-689.3014 52,-683.3014"/>
<text text-anchor="middle" x="35" y="-667.6014" font-family="Times,serif" font-size="14.00" fill="#000000">input_1</text>
</g>
<!-- __main__.Node object at 0x7f2f01859668&#45;&gt;__main__.Node object at 0x7f2f01865ef0 -->
<g id="edge1" class="edge">
<title>__main__.Node object at 0x7f2f01859668&#45;&gt;__main__.Node object at 0x7f2f01865ef0</title>
<path fill="none" stroke="#000000" d="M36.748,-689.3636C46.5422,-785.5584 98.4186,-1233.3014 215.5,-1233.3014 215.5,-1233.3014 215.5,-1233.3014 1113,-1233.3014 1216.3188,-1233.3014 1198.6418,-1132.8299 1238,-1037.3014 1272.1744,-954.3546 1287.5099,-848.2433 1293.1901,-798.4634"/>
<polygon fill="#000000" stroke="#000000" points="1296.6775,-798.7687 1294.2882,-788.4468 1289.7192,-798.0058 1296.6775,-798.7687"/>
<text text-anchor="middle" x="660.5" y="-1237.1014" font-family="Times,serif" font-size="14.00" fill="#000000">0.002483</text>
</g>
<!-- __main__.Node object at 0x7f2f01859ba8 -->
<g id="node5" class="node">
<title>__main__.Node object at 0x7f2f01859ba8</title>
<ellipse fill="#2ca02c" stroke="#000000" cx="215.5" cy="-835.3014" rx="27" ry="18"/>
</g>
<!-- __main__.Node object at 0x7f2f01859668&#45;&gt;__main__.Node object at 0x7f2f01859ba8 -->
<g id="edge5" class="edge">
<title>__main__.Node object at 0x7f2f01859668&#45;&gt;__main__.Node object at 0x7f2f01859ba8</title>
<path fill="none" stroke="#000000" d="M55.0063,-689.4788C88.4573,-719.8719 155.6018,-780.8786 191.5264,-813.5192"/>
<polygon fill="#000000" stroke="#000000" points="189.3586,-816.2785 199.1135,-820.4128 194.0659,-811.0976 189.3586,-816.2785"/>
<text text-anchor="middle" x="124.5" y="-785.1014" font-family="Times,serif" font-size="14.00" fill="#000000">0.299378</text>
</g>
<!-- __main__.Node object at 0x7f2f018596d8 -->
<g id="node6" class="node">
<title>__main__.Node object at 0x7f2f018596d8</title>
<ellipse fill="#2ca02c" stroke="#000000" cx="395" cy="-671.3014" rx="27" ry="18"/>
</g>
<!-- __main__.Node object at 0x7f2f01859668&#45;&gt;__main__.Node object at 0x7f2f018596d8 -->
<g id="edge2" class="edge">
<title>__main__.Node object at 0x7f2f01859668&#45;&gt;__main__.Node object at 0x7f2f018596d8</title>
<path fill="none" stroke="#000000" d="M70.1738,-671.3014C138.3295,-671.3014 287.8076,-671.3014 357.653,-671.3014"/>
<polygon fill="#000000" stroke="#000000" points="357.7582,-674.8015 367.7581,-671.3014 357.7581,-667.8015 357.7582,-674.8015"/>
<text text-anchor="middle" x="215.5" y="-675.1014" font-family="Times,serif" font-size="14.00" fill="#000000">0.060305</text>
</g>
<!-- __main__.Node object at 0x7f2f01859eb8 -->
<g id="node8" class="node">
<title>__main__.Node object at 0x7f2f01859eb8</title>
<ellipse fill="#2ca02c" stroke="#000000" cx="572" cy="-541.3014" rx="27" ry="18"/>
</g>
<!-- __main__.Node object at 0x7f2f01859668&#45;&gt;__main__.Node object at 0x7f2f01859eb8 -->
<g id="edge3" class="edge">
<title>__main__.Node object at 0x7f2f01859668&#45;&gt;__main__.Node object at 0x7f2f01859eb8</title>
<path fill="none" stroke="#000000" d="M70.0615,-661.2129C97.331,-651.9793 134.809,-636.0967 161,-612.3014 219.8423,-558.8413 224.0985,-532.7453 252,-458.3014 267.3885,-417.2433 236.2854,-389.3352 270,-361.3014 294.9469,-340.5579 318.4025,-340.1447 343,-361.3014 383.5534,-396.1819 325.7394,-440.0779 361,-480.3014 383.9651,-506.4987 481.6428,-526.3756 535.6789,-535.6082"/>
<polygon fill="#000000" stroke="#000000" points="535.1107,-539.0617 545.5512,-537.2595 536.2656,-532.1576 535.1107,-539.0617"/>
<text text-anchor="middle" x="306.5" y="-365.1014" font-family="Times,serif" font-size="14.00" fill="#000000">0.158139</text>
</g>
<!-- __main__.Node object at 0x7f2f01857160 -->
<g id="node12" class="node">
<title>__main__.Node object at 0x7f2f01857160</title>
<ellipse fill="#2ca02c" stroke="#000000" cx="933.5" cy="-455.3014" rx="27" ry="18"/>
</g>
<!-- __main__.Node object at 0x7f2f01859668&#45;&gt;__main__.Node object at 0x7f2f01857160 -->
<g id="edge4" class="edge">
<title>__main__.Node object at 0x7f2f01859668&#45;&gt;__main__.Node object at 0x7f2f01857160</title>
<path fill="none" stroke="#000000" d="M50.3067,-653.1609C60.425,-641.6851 74.3043,-626.8848 88,-615.3014 117.8355,-590.0673 139.8348,-599.1487 161,-566.3014 187.3576,-525.3957 151.4506,-498.4141 179,-458.3014 200.3177,-427.2622 229.5569,-445.5368 252,-415.3014 272.1742,-388.1227 243.3874,-362.2166 270,-341.3014 312.2925,-308.063 307.8662,-240.0321 879,-427.3014 887.5728,-430.1123 896.4472,-434.134 904.4823,-438.2556"/>
<polygon fill="#000000" stroke="#000000" points="902.9946,-441.4293 913.4611,-443.0734 906.3043,-435.2612 902.9946,-441.4293"/>
<text text-anchor="middle" x="483.5" y="-326.1014" font-family="Times,serif" font-size="14.00" fill="#000000">0.759968</text>
</g>
<!-- __main__.Node object at 0x7f2f018567b8 -->
<g id="node3" class="node">
<title>__main__.Node object at 0x7f2f018567b8</title>
<polygon fill="#1f77b4" stroke="#000000" points="52,-164.3014 0,-164.3014 0,-140.3014 52,-140.3014 52,-134.3014 70,-152.3014 52,-170.3014 52,-164.3014"/>
<text text-anchor="middle" x="35" y="-148.6014" font-family="Times,serif" font-size="14.00" fill="#000000">input_2</text>
</g>
<!-- __main__.Node object at 0x7f2f018567b8&#45;&gt;__main__.Node object at 0x7f2f01865ef0 -->
<g id="edge6" class="edge">
<title>__main__.Node object at 0x7f2f018567b8&#45;&gt;__main__.Node object at 0x7f2f01865ef0</title>
<path fill="none" stroke="#000000" d="M38.025,-134.0194C43.3501,-107.7512 56.9304,-59.6055 88,-33.3014 132.6737,4.5204 156.9661,-.3014 215.5,-.3014 215.5,-.3014 215.5,-.3014 1113,-.3014 1180.4341,-.3014 1204.1206,-27.9958 1238,-86.3014 1271.3832,-143.7529 1290.6198,-620.2153 1295.0223,-742.0289"/>
<polygon fill="#000000" stroke="#000000" points="1291.526,-742.199 1295.3804,-752.0678 1298.5216,-741.9494 1291.526,-742.199"/>
<text text-anchor="middle" x="660.5" y="-4.1014" font-family="Times,serif" font-size="14.00" fill="#000000">&#45;0.896722</text>
</g>
<!-- __main__.Node object at 0x7f2f018567b8&#45;&gt;__main__.Node object at 0x7f2f01859ba8 -->
<g id="edge7" class="edge">
<title>__main__.Node object at 0x7f2f018567b8&#45;&gt;__main__.Node object at 0x7f2f01859ba8</title>
<path fill="none" stroke="#000000" d="M41.7163,-170.7204C67.2576,-240.817 157.1051,-487.8773 161,-505.3014 179.0215,-585.9222 164.8775,-608.9069 179,-690.3014 186.1933,-731.7597 198.9107,-778.8497 207.2728,-807.8184"/>
<polygon fill="#000000" stroke="#000000" points="203.9745,-809.0098 210.1383,-817.6271 210.6937,-807.0469 203.9745,-809.0098"/>
<text text-anchor="middle" x="124.5" y="-509.1014" font-family="Times,serif" font-size="14.00" fill="#000000">&#45;0.535011</text>
</g>
<!-- __main__.Node object at 0x7f2f018567b8&#45;&gt;__main__.Node object at 0x7f2f018596d8 -->
<g id="edge9" class="edge">
<title>__main__.Node object at 0x7f2f018567b8&#45;&gt;__main__.Node object at 0x7f2f018596d8</title>
<path fill="none" stroke="#000000" d="M70.2659,-169.6614C147.3897,-207.9358 325.5781,-298.169 343,-323.3014 378.8337,-374.9941 390.6653,-568.7043 393.9228,-642.5027"/>
<polygon fill="#000000" stroke="#000000" points="390.4422,-643.0403 394.3588,-652.8846 397.436,-642.7465 390.4422,-643.0403"/>
<text text-anchor="middle" x="215.5" y="-265.1014" font-family="Times,serif" font-size="14.00" fill="#000000">&#45;0.912512</text>
</g>
<!-- __main__.Node object at 0x7f2f018567b8&#45;&gt;__main__.Node object at 0x7f2f01859eb8 -->
<g id="edge8" class="edge">
<title>__main__.Node object at 0x7f2f018567b8&#45;&gt;__main__.Node object at 0x7f2f01859eb8</title>
<path fill="none" stroke="#000000" d="M70.1881,-149.0195C164.0509,-142.4924 420.0207,-139.7814 520,-291.3014 539.2194,-320.4286 530.0114,-413.3314 538,-447.3014 543.489,-470.6425 552.9571,-496.1702 560.5101,-514.725"/>
<polygon fill="#000000" stroke="#000000" points="557.2945,-516.1079 564.3627,-524.0004 563.759,-513.4227 557.2945,-516.1079"/>
<text text-anchor="middle" x="306.5" y="-177.1014" font-family="Times,serif" font-size="14.00" fill="#000000">&#45;0.156739</text>
</g>
<!-- __main__.Node object at 0x7f2f01850b70 -->
<g id="node9" class="node">
<title>__main__.Node object at 0x7f2f01850b70</title>
<ellipse fill="#2ca02c" stroke="#000000" cx="751.5" cy="-532.3014" rx="27" ry="18"/>
</g>
<!-- __main__.Node object at 0x7f2f018567b8&#45;&gt;__main__.Node object at 0x7f2f01850b70 -->
<g id="edge10" class="edge">
<title>__main__.Node object at 0x7f2f018567b8&#45;&gt;__main__.Node object at 0x7f2f01850b70</title>
<path fill="none" stroke="#000000" d="M70.1344,-140.8937C155.5374,-115.4782 377.4571,-63.5666 520,-158.3014 668.6269,-257.0796 592.341,-379.6793 715,-509.3014 717.0271,-511.4435 719.294,-513.4708 721.6792,-515.3679"/>
<polygon fill="#000000" stroke="#000000" points="719.8799,-518.3821 730.0668,-521.294 723.9192,-512.665 719.8799,-518.3821"/>
<text text-anchor="middle" x="395" y="-122.1014" font-family="Times,serif" font-size="14.00" fill="#000000">0.745515</text>
</g>
<!-- __main__.Node object at 0x7f2f018567b8&#45;&gt;__main__.Node object at 0x7f2f01857160 -->
<g id="edge11" class="edge">
<title>__main__.Node object at 0x7f2f018567b8&#45;&gt;__main__.Node object at 0x7f2f01857160</title>
<path fill="none" stroke="#000000" d="M40.5143,-134.2858C47.8577,-113.4957 62.9229,-79.9151 88,-62.3014 135.1856,-29.1591 157.8382,-38.3014 215.5,-38.3014 215.5,-38.3014 215.5,-38.3014 751.5,-38.3014 836.6866,-38.3014 907.5225,-334.3111 927.7193,-427.5369"/>
<polygon fill="#000000" stroke="#000000" points="924.3113,-428.3374 929.8267,-437.3834 931.1563,-426.8723 924.3113,-428.3374"/>
<text text-anchor="middle" x="483.5" y="-42.1014" font-family="Times,serif" font-size="14.00" fill="#000000">&#45;0.515819</text>
</g>
<!-- __main__.Node object at 0x7f2f01859c18 -->
<g id="node14" class="node">
<title>__main__.Node object at 0x7f2f01859c18</title>
<ellipse fill="#2ca02c" stroke="#000000" cx="933.5" cy="-928.3014" rx="27" ry="18"/>
</g>
<!-- __main__.Node object at 0x7f2f018567b8&#45;&gt;__main__.Node object at 0x7f2f01859c18 -->
<g id="edge12" class="edge">
<title>__main__.Node object at 0x7f2f018567b8&#45;&gt;__main__.Node object at 0x7f2f01859c18</title>
<path fill="none" stroke="#000000" d="M50.3289,-170.5631C60.683,-182.6681 74.817,-198.7551 88,-212.3014 157.5224,-283.7396 210.2461,-274.784 252,-365.3014 289.8281,-447.308 229.6181,-690.5217 270,-771.3014 288.7787,-808.8661 315.8021,-799.3009 343,-831.3014 353.3178,-843.441 348.6158,-852.2784 361,-862.3014 418.7935,-909.0754 449.6364,-890.2832 520,-914.3014 566.4299,-930.1499 576.3049,-939.8084 624,-951.3014 663.6594,-960.8579 674.2931,-960.6289 715,-963.3014 747.3748,-965.4268 755.6938,-966.2931 788,-963.3014 828.9688,-959.5074 839.1537,-956.5539 879,-946.3014 885.8079,-944.5497 893.0024,-942.3965 899.8535,-940.1961"/>
<polygon fill="#000000" stroke="#000000" points="901.1687,-943.4475 909.5603,-936.9798 898.9669,-936.8028 901.1687,-943.4475"/>
<text text-anchor="middle" x="483.5" y="-918.1014" font-family="Times,serif" font-size="14.00" fill="#000000">0.098762</text>
</g>
<!-- __main__.Node object at 0x7f2f01865518 -->
<g id="node4" class="node">
<title>__main__.Node object at 0x7f2f01865518</title>
<polygon fill="#1f77b4" stroke="#000000" points="52,-413.3014 0,-413.3014 0,-389.3014 52,-389.3014 52,-383.3014 70,-401.3014 52,-419.3014 52,-413.3014"/>
<text text-anchor="middle" x="35" y="-397.6014" font-family="Times,serif" font-size="14.00" fill="#000000">input_3</text>
</g>
<!-- __main__.Node object at 0x7f2f01865518&#45;&gt;__main__.Node object at 0x7f2f01865ef0 -->
<g id="edge13" class="edge">
<title>__main__.Node object at 0x7f2f01865518&#45;&gt;__main__.Node object at 0x7f2f01865ef0</title>
<path fill="none" stroke="#000000" d="M36.3638,-382.8968C42.5474,-314.1451 74.1539,-76.3014 215.5,-76.3014 215.5,-76.3014 215.5,-76.3014 1113,-76.3014 1219.713,-76.3014 1203.1369,-180.444 1238,-281.3014 1267.8918,-367.7769 1288.3453,-651.5082 1294.246,-742.177"/>
<polygon fill="#000000" stroke="#000000" points="1290.7592,-742.4959 1294.8931,-752.2509 1297.7448,-742.0471 1290.7592,-742.4959"/>
<text text-anchor="middle" x="660.5" y="-80.1014" font-family="Times,serif" font-size="14.00" fill="#000000">0.463196</text>
</g>
<!-- __main__.Node object at 0x7f2f01865518&#45;&gt;__main__.Node object at 0x7f2f01859ba8 -->
<g id="edge14" class="edge">
<title>__main__.Node object at 0x7f2f01865518&#45;&gt;__main__.Node object at 0x7f2f01859ba8</title>
<path fill="none" stroke="#000000" d="M37.9394,-419.5233C43.2052,-446.2854 56.7672,-496.0917 88,-524.3014 113.2441,-547.102 139.2059,-521.1833 161,-547.3014 181.5203,-571.8929 173.0799,-658.8247 179,-690.3014 186.7776,-731.6541 199.3394,-778.7722 207.5087,-807.7757"/>
<polygon fill="#000000" stroke="#000000" points="204.2,-808.9367 210.3027,-817.5974 210.9329,-807.0213 204.2,-808.9367"/>
<text text-anchor="middle" x="124.5" y="-551.1014" font-family="Times,serif" font-size="14.00" fill="#000000">0.218462</text>
</g>
<!-- __main__.Node object at 0x7f2f01865518&#45;&gt;__main__.Node object at 0x7f2f018596d8 -->
<g id="edge16" class="edge">
<title>__main__.Node object at 0x7f2f01865518&#45;&gt;__main__.Node object at 0x7f2f018596d8</title>
<path fill="none" stroke="#000000" d="M70.3913,-404.6113C116.0814,-407.0959 196.32,-405.2215 252,-369.3014 264.4317,-361.2815 257.0151,-348.3905 270,-341.3014 298.4769,-325.7544 318.6297,-319.8834 343,-341.3014 366.3956,-361.8627 356.2693,-449.5159 361,-480.3014 369.9394,-538.4761 382.5173,-606.2282 389.6008,-643.3749"/>
<polygon fill="#000000" stroke="#000000" points="386.2103,-644.2791 391.5291,-653.4421 393.0853,-642.9622 386.2103,-644.2791"/>
<text text-anchor="middle" x="215.5" y="-400.1014" font-family="Times,serif" font-size="14.00" fill="#000000">0.386803</text>
</g>
<!-- __main__.Node object at 0x7f2f01865518&#45;&gt;__main__.Node object at 0x7f2f01859eb8 -->
<g id="edge19" class="edge">
<title>__main__.Node object at 0x7f2f01865518&#45;&gt;__main__.Node object at 0x7f2f01859eb8</title>
<path fill="none" stroke="#000000" d="M58.7626,-383.1304C111.2386,-345.3578 240.4915,-265.3201 343,-308.3014 395.8616,-330.4659 508.0048,-462.8791 552.8653,-517.631"/>
<polygon fill="#000000" stroke="#000000" points="550.1905,-519.8891 559.2249,-525.4236 555.6137,-515.4632 550.1905,-519.8891"/>
<text text-anchor="middle" x="306.5" y="-312.1014" font-family="Times,serif" font-size="14.00" fill="#000000">0.153514</text>
</g>
<!-- __main__.Node object at 0x7f2f01865518&#45;&gt;__main__.Node object at 0x7f2f01850b70 -->
<g id="edge15" class="edge">
<title>__main__.Node object at 0x7f2f01865518&#45;&gt;__main__.Node object at 0x7f2f01850b70</title>
<path fill="none" stroke="#000000" d="M42.8556,-383.0004C51.4498,-365.0631 66.8706,-338.1712 88,-322.3014 164.9975,-264.47 448.1801,-224.1532 520,-288.3014 546.5206,-311.989 516.4146,-419.0433 538,-447.3014 580.5298,-502.9784 665.1796,-522.2672 714.1473,-528.891"/>
<polygon fill="#000000" stroke="#000000" points="713.9642,-532.3951 724.3193,-530.1539 714.8267,-525.4484 713.9642,-532.3951"/>
<text text-anchor="middle" x="395" y="-261.1014" font-family="Times,serif" font-size="14.00" fill="#000000">0.257237</text>
</g>
<!-- __main__.Node object at 0x7f2f01859898 -->
<g id="node10" class="node">
<title>__main__.Node object at 0x7f2f01859898</title>
<ellipse fill="#2ca02c" stroke="#000000" cx="572" cy="-835.3014" rx="27" ry="18"/>
</g>
<!-- __main__.Node object at 0x7f2f01865518&#45;&gt;__main__.Node object at 0x7f2f01859898 -->
<g id="edge17" class="edge">
<title>__main__.Node object at 0x7f2f01865518&#45;&gt;__main__.Node object at 0x7f2f01859898</title>
<path fill="none" stroke="#000000" d="M64.2092,-419.3453C90.5405,-436.1492 129.7994,-462.5632 161,-489.3014 258.6237,-572.9625 264.9642,-612.8221 361,-698.3014 396.7883,-730.1557 407.053,-736.8487 447,-763.3014 478.429,-784.1134 516.1114,-805.3419 541.8292,-819.3028"/>
<polygon fill="#000000" stroke="#000000" points="540.2662,-822.4364 550.7292,-824.1032 543.5894,-816.2754 540.2662,-822.4364"/>
<text text-anchor="middle" x="306.5" y="-684.1014" font-family="Times,serif" font-size="14.00" fill="#000000">0.035957</text>
</g>
<!-- __main__.Node object at 0x7f2f01865518&#45;&gt;__main__.Node object at 0x7f2f01857160 -->
<g id="edge18" class="edge">
<title>__main__.Node object at 0x7f2f01865518&#45;&gt;__main__.Node object at 0x7f2f01857160</title>
<path fill="none" stroke="#000000" d="M39.9266,-382.9941C47.2354,-358.4373 62.8579,-314.4377 88,-284.3014 119.5123,-246.5293 132.0465,-235.9685 179,-221.3014 209.9687,-211.6275 219.5781,-220.0933 252,-221.3014 492.3762,-230.2582 613.1857,-131.0716 788,-296.3014 810.7204,-317.7761 785.113,-341.0394 806,-364.3014 829.216,-390.1572 850.5565,-372.3396 879,-392.3014 893.5236,-402.494 906.6438,-417.3868 916.3701,-430.1336"/>
<polygon fill="#000000" stroke="#000000" points="913.7969,-432.5429 922.537,-438.5314 919.4391,-428.3996 913.7969,-432.5429"/>
<text text-anchor="middle" x="483.5" y="-213.1014" font-family="Times,serif" font-size="14.00" fill="#000000">0.545371</text>
</g>
<!-- __main__.Node object at 0x7f2f01865518&#45;&gt;__main__.Node object at 0x7f2f01859c18 -->
<g id="edge20" class="edge">
<title>__main__.Node object at 0x7f2f01865518&#45;&gt;__main__.Node object at 0x7f2f01859c18</title>
<path fill="none" stroke="#000000" d="M38.2057,-419.556C54.0384,-508.7597 125.2802,-898.9714 179,-1009.3014 234.4597,-1123.2048 268.3123,-1195.3014 395,-1195.3014 395,-1195.3014 395,-1195.3014 660.5,-1195.3014 718.1618,-1195.3014 738.9634,-1201.6379 788,-1171.3014 868.7856,-1121.3233 910.5033,-1008.3894 926.1111,-955.9813"/>
<polygon fill="#000000" stroke="#000000" points="929.5665,-956.6297 928.9694,-946.0517 922.8396,-954.6933 929.5665,-956.6297"/>
<text text-anchor="middle" x="483.5" y="-1199.1014" font-family="Times,serif" font-size="14.00" fill="#000000">&#45;0.37454</text>
</g>
<!-- __main__.Node object at 0x7f2f01856dd8 -->
<g id="node16" class="node">
<title>__main__.Node object at 0x7f2f01856dd8</title>
<ellipse fill="#2ca02c" stroke="#000000" cx="1113" cy="-882.3014" rx="27" ry="18"/>
</g>
<!-- __main__.Node object at 0x7f2f01865518&#45;&gt;__main__.Node object at 0x7f2f01856dd8 -->
<g id="edge21" class="edge">
<title>__main__.Node object at 0x7f2f01865518&#45;&gt;__main__.Node object at 0x7f2f01856dd8</title>
<path fill="none" stroke="#000000" d="M39.3592,-419.7869C46.9491,-450.3833 64.096,-513.0629 88,-562.3014 113.6252,-615.085 141.4228,-616.9886 161,-672.3014 189.3015,-752.2632 149.1216,-782.9153 179,-862.3014 217.8824,-965.6108 255.2525,-999.6445 361,-1031.3014 581.7159,-1097.3754 659.3099,-1120.71 879,-1051.3014 969.2673,-1022.7824 1053.7327,-944.3289 1091.8067,-905.1649"/>
<polygon fill="#000000" stroke="#000000" points="1094.3952,-907.5224 1098.7909,-897.8824 1089.3431,-902.6772 1094.3952,-907.5224"/>
<text text-anchor="middle" x="572" y="-1094.1014" font-family="Times,serif" font-size="14.00" fill="#000000">&#45;0.84987</text>
</g>
<!-- __main__.Node object at 0x7f2f01859ba8&#45;&gt;__main__.Node object at 0x7f2f01865ef0 -->
<g id="edge22" class="edge">
<title>__main__.Node object at 0x7f2f01859ba8&#45;&gt;__main__.Node object at 0x7f2f01865ef0</title>
<path fill="none" stroke="#000000" d="M217.6298,-853.485C222.1273,-884.5371 235.2131,-948.3008 270,-988.3014 453.3514,-1199.1326 600.0126,-1159.5843 879,-1144.3014 1053.2431,-1134.7563 1130.5351,-1122.7897 1238,-985.3014 1260.8386,-956.0821 1282.0207,-849.9052 1291.202,-798.5299"/>
<polygon fill="#000000" stroke="#000000" points="1294.6903,-798.9013 1292.9753,-788.4462 1287.7961,-797.6888 1294.6903,-798.9013"/>
<text text-anchor="middle" x="751.5" y="-1158.1014" font-family="Times,serif" font-size="14.00" fill="#000000">&#45;0.312563</text>
</g>
<!-- __main__.Node object at 0x7f2f01859ba8&#45;&gt;__main__.Node object at 0x7f2f018596d8 -->
<g id="edge23" class="edge">
<title>__main__.Node object at 0x7f2f01859ba8&#45;&gt;__main__.Node object at 0x7f2f018596d8</title>
<path fill="none" stroke="#000000" d="M231.4294,-820.7475C263.0178,-791.8868 333.7512,-727.2613 371.0023,-693.2268"/>
<polygon fill="#000000" stroke="#000000" points="373.8264,-695.3875 378.8482,-686.0584 369.1048,-690.2196 373.8264,-695.3875"/>
<text text-anchor="middle" x="306.5" y="-785.1014" font-family="Times,serif" font-size="14.00" fill="#000000">0.060984</text>
</g>
<!-- __main__.Node object at 0x7f2f018574e0 -->
<g id="node7" class="node">
<title>__main__.Node object at 0x7f2f018574e0</title>
<ellipse fill="#2ca02c" stroke="#000000" cx="395" cy="-835.3014" rx="27" ry="18"/>
</g>
<!-- __main__.Node object at 0x7f2f01859ba8&#45;&gt;__main__.Node object at 0x7f2f018574e0 -->
<g id="edge24" class="edge">
<title>__main__.Node object at 0x7f2f01859ba8&#45;&gt;__main__.Node object at 0x7f2f018574e0</title>
<path fill="none" stroke="#000000" d="M242.7622,-835.3014C273.4261,-835.3014 323.4095,-835.3014 357.6826,-835.3014"/>
<polygon fill="#000000" stroke="#000000" points="357.776,-838.8015 367.7759,-835.3014 357.7759,-831.8015 357.776,-838.8015"/>
<text text-anchor="middle" x="306.5" y="-839.1014" font-family="Times,serif" font-size="14.00" fill="#000000">0.977669</text>
</g>
<!-- __main__.Node object at 0x7f2f01859ba8&#45;&gt;__main__.Node object at 0x7f2f01857160 -->
<g id="edge27" class="edge">
<title>__main__.Node object at 0x7f2f01859ba8&#45;&gt;__main__.Node object at 0x7f2f01857160</title>
<path fill="none" stroke="#000000" d="M221.2716,-817.5514C246.9929,-739.2156 351.8014,-428.3014 395,-428.3014 395,-428.3014 395,-428.3014 751.5,-428.3014 802.8141,-428.3014 861.3939,-438.9331 897.9149,-446.8536"/>
<polygon fill="#000000" stroke="#000000" points="897.536,-450.3547 908.0571,-449.107 899.0543,-443.5213 897.536,-450.3547"/>
<text text-anchor="middle" x="572" y="-432.1014" font-family="Times,serif" font-size="14.00" fill="#000000">0.331495</text>
</g>
<!-- __main__.Node object at 0x7f2f01859ba8&#45;&gt;__main__.Node object at 0x7f2f01859c18 -->
<g id="edge26" class="edge">
<title>__main__.Node object at 0x7f2f01859ba8&#45;&gt;__main__.Node object at 0x7f2f01859c18</title>
<path fill="none" stroke="#000000" d="M222.5297,-853.0399C242.1764,-899.3439 302.364,-1020.3014 395,-1020.3014 395,-1020.3014 395,-1020.3014 751.5,-1020.3014 809.1618,-1020.3014 829.561,-1025.9775 879,-996.3014 895.8654,-986.1778 909.6573,-968.7976 919.1474,-954.1429"/>
<polygon fill="#000000" stroke="#000000" points="922.2305,-955.8109 924.4895,-945.4597 916.2684,-952.1429 922.2305,-955.8109"/>
<text text-anchor="middle" x="572" y="-1024.1014" font-family="Times,serif" font-size="14.00" fill="#000000">0.447869</text>
</g>
<!-- __main__.Node object at 0x7f2f018597b8 -->
<g id="node15" class="node">
<title>__main__.Node object at 0x7f2f018597b8</title>
<ellipse fill="#2ca02c" stroke="#000000" cx="751.5" cy="-936.3014" rx="27" ry="18"/>
</g>
<!-- __main__.Node object at 0x7f2f01859ba8&#45;&gt;__main__.Node object at 0x7f2f018597b8 -->
<g id="edge25" class="edge">
<title>__main__.Node object at 0x7f2f01859ba8&#45;&gt;__main__.Node object at 0x7f2f018597b8</title>
<path fill="none" stroke="#000000" d="M235.4873,-847.4323C262.876,-863.5571 314.0359,-891.9167 361,-908.3014 472.8306,-947.3163 505.8505,-942.9987 624,-951.3014 656.3646,-953.5757 664.8477,-955.6452 697,-951.3014 703.6375,-950.4046 710.6095,-948.9199 717.2659,-947.2244"/>
<polygon fill="#000000" stroke="#000000" points="718.6611,-950.4705 727.3728,-944.4408 716.8024,-943.7218 718.6611,-950.4705"/>
<text text-anchor="middle" x="483.5" y="-948.1014" font-family="Times,serif" font-size="14.00" fill="#000000">&#45;0.665176</text>
</g>
<!-- __main__.Node object at 0x7f2f018596d8&#45;&gt;__main__.Node object at 0x7f2f01865ef0 -->
<g id="edge28" class="edge">
<title>__main__.Node object at 0x7f2f018596d8&#45;&gt;__main__.Node object at 0x7f2f01865ef0</title>
<path fill="none" stroke="#000000" d="M422.1174,-670.0301C504.7923,-666.5969 760.7827,-659.247 970,-688.3014 1069.5891,-702.1315 1182.7816,-734.4849 1246.1636,-754.1662"/>
<polygon fill="#000000" stroke="#000000" points="1245.3098,-757.5663 1255.8986,-757.2114 1247.3996,-750.8855 1245.3098,-757.5663"/>
<text text-anchor="middle" x="842.5" y="-681.1014" font-family="Times,serif" font-size="14.00" fill="#000000">1.0</text>
</g>
<!-- __main__.Node object at 0x7f2f018596d8&#45;&gt;__main__.Node object at 0x7f2f01859eb8 -->
<g id="edge30" class="edge">
<title>__main__.Node object at 0x7f2f018596d8&#45;&gt;__main__.Node object at 0x7f2f01859eb8</title>
<path fill="none" stroke="#000000" d="M397.8514,-653.0252C402.888,-627.3854 415.9329,-581.3041 447,-558.3014 472.173,-539.6628 508.2318,-536.5437 535.1573,-537.421"/>
<polygon fill="#000000" stroke="#000000" points="535.1809,-540.9269 545.3502,-537.9546 535.5469,-533.9365 535.1809,-540.9269"/>
<text text-anchor="middle" x="483.5" y="-562.1014" font-family="Times,serif" font-size="14.00" fill="#000000">0.858873</text>
</g>
<!-- __main__.Node object at 0x7f2f018596d8&#45;&gt;__main__.Node object at 0x7f2f01859898 -->
<g id="edge32" class="edge">
<title>__main__.Node object at 0x7f2f018596d8&#45;&gt;__main__.Node object at 0x7f2f01859898</title>
<path fill="none" stroke="#000000" d="M418.7968,-680.5939C446.4941,-692.4948 492.0016,-715.5665 520,-748.3014 533.4664,-764.0459 527.5771,-773.3961 538,-791.3014 542.0068,-798.1845 546.9621,-805.2008 551.8385,-811.5497"/>
<polygon fill="#000000" stroke="#000000" points="549.3757,-814.0755 558.3428,-819.7183 554.8518,-809.7151 549.3757,-814.0755"/>
<text text-anchor="middle" x="483.5" y="-752.1014" font-family="Times,serif" font-size="14.00" fill="#000000">0.469141</text>
</g>
<!-- __main__.Node object at 0x7f2f01859a58 -->
<g id="node11" class="node">
<title>__main__.Node object at 0x7f2f01859a58</title>
<ellipse fill="#2ca02c" stroke="#000000" cx="751.5" cy="-765.3014" rx="27" ry="18"/>
</g>
<!-- __main__.Node object at 0x7f2f018596d8&#45;&gt;__main__.Node object at 0x7f2f01859a58 -->
<g id="edge29" class="edge">
<title>__main__.Node object at 0x7f2f018596d8&#45;&gt;__main__.Node object at 0x7f2f01859a58</title>
<path fill="none" stroke="#000000" d="M420.9393,-676.9558C446.2793,-682.5652 485.9028,-691.5641 520,-700.3014 590.1555,-718.2784 671.5416,-741.7414 716.7178,-754.9989"/>
<polygon fill="#000000" stroke="#000000" points="716.0119,-758.4395 726.5932,-757.9038 717.9874,-751.724 716.0119,-758.4395"/>
<text text-anchor="middle" x="572" y="-726.1014" font-family="Times,serif" font-size="14.00" fill="#000000">0.9774</text>
</g>
<!-- __main__.Node object at 0x7f2f01859c88 -->
<g id="node13" class="node">
<title>__main__.Node object at 0x7f2f01859c88</title>
<ellipse fill="#2ca02c" stroke="#000000" cx="1113" cy="-590.3014" rx="27" ry="18"/>
</g>
<!-- __main__.Node object at 0x7f2f018596d8&#45;&gt;__main__.Node object at 0x7f2f01859c88 -->
<g id="edge31" class="edge">
<title>__main__.Node object at 0x7f2f018596d8&#45;&gt;__main__.Node object at 0x7f2f01859c88</title>
<path fill="none" stroke="#000000" d="M404.462,-654.2135C413.3881,-639.959 428.194,-620.5386 447,-611.3014 558.6123,-556.479 952.4501,-578.9244 1075.785,-587.524"/>
<polygon fill="#000000" stroke="#000000" points="1075.6436,-591.0226 1085.866,-588.2384 1076.1385,-584.0401 1075.6436,-591.0226"/>
<text text-anchor="middle" x="751.5" y="-579.1014" font-family="Times,serif" font-size="14.00" fill="#000000">&#45;0.633608</text>
</g>
<!-- __main__.Node object at 0x7f2f018574e0&#45;&gt;__main__.Node object at 0x7f2f01865ef0 -->
<g id="edge33" class="edge">
<title>__main__.Node object at 0x7f2f018574e0&#45;&gt;__main__.Node object at 0x7f2f01865ef0</title>
<path fill="none" stroke="#000000" d="M401.2778,-852.878C409.1333,-872.5518 424.3656,-904.1718 447,-923.3014 473.5402,-945.7318 497.5303,-924.7944 520,-951.3014 545.8139,-981.7534 507.0723,-1014.0594 538,-1039.3014 548.6328,-1047.9794 629.9283,-1050.0401 788,-1034.3014 990.9572,-1014.0934 1092.111,-1086.837 1238,-944.3014 1259.0413,-923.7437 1279.9226,-842.2224 1289.9143,-798.446"/>
<polygon fill="#000000" stroke="#000000" points="1293.3845,-798.9663 1292.1577,-788.4427 1286.5541,-797.4344 1293.3845,-798.9663"/>
<text text-anchor="middle" x="842.5" y="-1036.1014" font-family="Times,serif" font-size="14.00" fill="#000000">1.0</text>
</g>
<!-- __main__.Node object at 0x7f2f018574e0&#45;&gt;__main__.Node object at 0x7f2f01859898 -->
<g id="edge35" class="edge">
<title>__main__.Node object at 0x7f2f018574e0&#45;&gt;__main__.Node object at 0x7f2f01859898</title>
<path fill="none" stroke="#000000" d="M422.2683,-835.3014C452.3692,-835.3014 501.0065,-835.3014 534.6406,-835.3014"/>
<polygon fill="#000000" stroke="#000000" points="534.9912,-838.8015 544.9911,-835.3014 534.9911,-831.8015 534.9912,-838.8015"/>
<text text-anchor="middle" x="483.5" y="-839.1014" font-family="Times,serif" font-size="14.00" fill="#000000">0.975843</text>
</g>
<!-- __main__.Node object at 0x7f2f018574e0&#45;&gt;__main__.Node object at 0x7f2f01859a58 -->
<g id="edge34" class="edge">
<title>__main__.Node object at 0x7f2f018574e0&#45;&gt;__main__.Node object at 0x7f2f01859a58</title>
<path fill="none" stroke="#000000" d="M418.6282,-826.4411C459.6881,-811.5351 547.1798,-781.9321 624,-770.3014 654.2233,-765.7255 688.9086,-764.6299 714.4647,-764.5921"/>
<polygon fill="#000000" stroke="#000000" points="714.459,-768.092 724.4724,-764.6304 714.4859,-761.0921 714.459,-768.092"/>
<text text-anchor="middle" x="572" y="-792.1014" font-family="Times,serif" font-size="14.00" fill="#000000">0.758962</text>
</g>
<!-- __main__.Node object at 0x7f2f018574e0&#45;&gt;__main__.Node object at 0x7f2f01859c88 -->
<g id="edge36" class="edge">
<title>__main__.Node object at 0x7f2f018574e0&#45;&gt;__main__.Node object at 0x7f2f01859c88</title>
<path fill="none" stroke="#000000" d="M398.148,-817.4198C403.4971,-792.8648 416.8658,-749.3611 447,-728.3014 486.5476,-700.6629 832.1546,-695.8517 879,-684.3014 899.4348,-679.2629 1021.2,-628.7562 1080.5366,-603.9312"/>
<polygon fill="#000000" stroke="#000000" points="1081.9658,-607.1273 1089.8378,-600.0362 1079.2619,-600.6705 1081.9658,-607.1273"/>
<text text-anchor="middle" x="751.5" y="-700.1014" font-family="Times,serif" font-size="14.00" fill="#000000">&#45;0.583756</text>
</g>
<!-- __main__.Node object at 0x7f2f018574e0&#45;&gt;__main__.Node object at 0x7f2f018597b8 -->
<g id="edge37" class="edge">
<title>__main__.Node object at 0x7f2f018574e0&#45;&gt;__main__.Node object at 0x7f2f018597b8</title>
<path fill="none" stroke="#000000" d="M418.7255,-844.2613C427.5658,-847.5229 437.7083,-851.1744 447,-854.3014 517.084,-877.8869 547.0968,-858.5972 606,-903.3014 617.7845,-912.2451 611.1565,-923.9591 624,-931.3014 651.6741,-947.1218 688.5217,-946.7366 715.486,-943.3656"/>
<polygon fill="#000000" stroke="#000000" points="716.2602,-946.7902 725.657,-941.8963 715.2592,-939.8621 716.2602,-946.7902"/>
<text text-anchor="middle" x="572" y="-907.1014" font-family="Times,serif" font-size="14.00" fill="#000000">0.100768</text>
</g>
<!-- __main__.Node object at 0x7f2f01859eb8&#45;&gt;__main__.Node object at 0x7f2f01865ef0 -->
<g id="edge38" class="edge">
<title>__main__.Node object at 0x7f2f01859eb8&#45;&gt;__main__.Node object at 0x7f2f01865ef0</title>
<path fill="none" stroke="#000000" d="M579.3364,-523.6515C604.7628,-463.8062 690.8643,-272.3014 751.5,-272.3014 751.5,-272.3014 751.5,-272.3014 1113,-272.3014 1206.0673,-272.3014 1201.1732,-354.8302 1238,-440.3014 1261.4876,-494.8137 1284.387,-672.1338 1292.7091,-741.8144"/>
<polygon fill="#000000" stroke="#000000" points="1289.2679,-742.5182 1293.9175,-752.0383 1296.2195,-741.6965 1289.2679,-742.5182"/>
<text text-anchor="middle" x="933.5" y="-276.1014" font-family="Times,serif" font-size="14.00" fill="#000000">&#45;0.169775</text>
</g>
<!-- __main__.Node object at 0x7f2f01859eb8&#45;&gt;__main__.Node object at 0x7f2f01850b70 -->
<g id="edge39" class="edge">
<title>__main__.Node object at 0x7f2f01859eb8&#45;&gt;__main__.Node object at 0x7f2f01850b70</title>
<path fill="none" stroke="#000000" d="M598.1001,-536.5298C606.3548,-535.2243 615.5327,-533.9823 624,-533.3014 654.1185,-530.8793 688.3674,-530.7558 713.7792,-531.1683"/>
<polygon fill="#000000" stroke="#000000" points="714.0236,-534.6737 724.0911,-531.3728 714.1625,-527.6751 714.0236,-534.6737"/>
<text text-anchor="middle" x="660.5" y="-537.1014" font-family="Times,serif" font-size="14.00" fill="#000000">0.342485</text>
</g>
<!-- __main__.Node object at 0x7f2f01859eb8&#45;&gt;__main__.Node object at 0x7f2f01859a58 -->
<g id="edge40" class="edge">
<title>__main__.Node object at 0x7f2f01859eb8&#45;&gt;__main__.Node object at 0x7f2f01859a58</title>
<path fill="none" stroke="#000000" d="M590.8834,-554.7487C622.3334,-577.5209 683.3468,-623.4247 697,-646.3014 717.2358,-680.2075 695.1237,-699.1833 715,-733.3014 717.5188,-737.6249 720.8326,-741.6642 724.4372,-745.3187"/>
<polygon fill="#000000" stroke="#000000" points="722.3226,-748.1257 732.083,-752.247 727.023,-742.9386 722.3226,-748.1257"/>
<text text-anchor="middle" x="660.5" y="-650.1014" font-family="Times,serif" font-size="14.00" fill="#000000">0.52085</text>
</g>
<!-- __main__.Node object at 0x7f2f01859eb8&#45;&gt;__main__.Node object at 0x7f2f01857160 -->
<g id="edge41" class="edge">
<title>__main__.Node object at 0x7f2f01859eb8&#45;&gt;__main__.Node object at 0x7f2f01857160</title>
<path fill="none" stroke="#000000" d="M595.4206,-531.6562C623.449,-520.4173 671.994,-501.9093 715,-490.3014 754.7226,-479.5796 765.3977,-479.9566 806,-473.3014 836.4409,-468.3117 871.1093,-463.4714 896.6034,-460.0691"/>
<polygon fill="#000000" stroke="#000000" points="897.1293,-463.5301 906.5835,-458.748 896.2107,-456.5906 897.1293,-463.5301"/>
<text text-anchor="middle" x="751.5" y="-494.1014" font-family="Times,serif" font-size="14.00" fill="#000000">0.775403</text>
</g>
<!-- __main__.Node object at 0x7f2f01859eb8&#45;&gt;__main__.Node object at 0x7f2f01859c88 -->
<g id="edge42" class="edge">
<title>__main__.Node object at 0x7f2f01859eb8&#45;&gt;__main__.Node object at 0x7f2f01859c88</title>
<path fill="none" stroke="#000000" d="M585.9738,-525.5982C595.8934,-515.0483 609.9026,-501.3001 624,-491.3014 722.2748,-421.5991 759.326,-385.356 879,-399.3014 961.5572,-408.9216 999.2009,-386.7215 1061,-442.3014 1095.5341,-473.36 1107.1337,-528.7196 1111.0298,-562.2185"/>
<polygon fill="#000000" stroke="#000000" points="1107.5574,-562.6699 1112.0433,-572.2681 1114.5221,-561.9674 1107.5574,-562.6699"/>
<text text-anchor="middle" x="842.5" y="-403.1014" font-family="Times,serif" font-size="14.00" fill="#000000">&#45;0.746857</text>
</g>
<!-- __main__.Node object at 0x7f2f01859eb8&#45;&gt;__main__.Node object at 0x7f2f018597b8 -->
<g id="edge43" class="edge">
<title>__main__.Node object at 0x7f2f01859eb8&#45;&gt;__main__.Node object at 0x7f2f018597b8</title>
<path fill="none" stroke="#000000" d="M578.4539,-558.9142C587.5933,-583.2872 605.2885,-628.4619 624,-665.3014 652.4423,-721.2989 669.9261,-729.6296 697,-786.3014 716.7444,-827.6309 733.7151,-878.1325 743.261,-908.7262"/>
<polygon fill="#000000" stroke="#000000" points="739.9197,-909.7686 746.207,-918.2962 746.6099,-907.7091 739.9197,-909.7686"/>
<text text-anchor="middle" x="660.5" y="-790.1014" font-family="Times,serif" font-size="14.00" fill="#000000">0.347292</text>
</g>
<!-- __main__.Node object at 0x7f2f01859eb8&#45;&gt;__main__.Node object at 0x7f2f01856dd8 -->
<g id="edge44" class="edge">
<title>__main__.Node object at 0x7f2f01859eb8&#45;&gt;__main__.Node object at 0x7f2f01856dd8</title>
<path fill="none" stroke="#000000" d="M598.0113,-546.2244C629.8651,-552.6507 681.5014,-564.4778 697,-576.3014 709.3625,-585.7325 702.0867,-597.6397 715,-606.3014 776.2321,-647.3729 826.504,-579.5287 879,-631.3014 913.6472,-665.4711 870.5123,-698.4798 897,-739.3014 941.2009,-807.4217 1030.504,-850.5875 1079.2982,-870.1127"/>
<polygon fill="#000000" stroke="#000000" points="1078.19,-873.4372 1088.7782,-873.8119 1080.7347,-866.9161 1078.19,-873.4372"/>
<text text-anchor="middle" x="842.5" y="-635.1014" font-family="Times,serif" font-size="14.00" fill="#000000">0.87676</text>
</g>
<!-- __main__.Node object at 0x7f2f01850b70&#45;&gt;__main__.Node object at 0x7f2f01865ef0 -->
<g id="edge45" class="edge">
<title>__main__.Node object at 0x7f2f01850b70&#45;&gt;__main__.Node object at 0x7f2f01865ef0</title>
<path fill="none" stroke="#000000" d="M778.0288,-528.3441C844.0082,-519.7398 1019.3804,-504.529 1147,-563.3014 1192.6191,-584.3102 1207.0303,-590.7621 1238,-630.3014 1264.5565,-664.2063 1280.8659,-711.9957 1289.1743,-742.0491"/>
<polygon fill="#000000" stroke="#000000" points="1285.837,-743.119 1291.7831,-751.8879 1292.6032,-741.3248 1285.837,-743.119"/>
<text text-anchor="middle" x="1024.5" y="-538.1014" font-family="Times,serif" font-size="14.00" fill="#000000">&#45;0.805349</text>
</g>
<!-- __main__.Node object at 0x7f2f01850b70&#45;&gt;__main__.Node object at 0x7f2f01857160 -->
<g id="edge46" class="edge">
<title>__main__.Node object at 0x7f2f01850b70&#45;&gt;__main__.Node object at 0x7f2f01857160</title>
<path fill="none" stroke="#000000" d="M768.2393,-518.0929C778.5742,-509.9067 792.4161,-499.9536 806,-493.3014 814.4488,-489.1638 863.7819,-474.9024 898.54,-465.0785"/>
<polygon fill="#000000" stroke="#000000" points="899.678,-468.3942 908.3538,-462.313 897.7794,-461.6566 899.678,-468.3942"/>
<text text-anchor="middle" x="842.5" y="-497.1014" font-family="Times,serif" font-size="14.00" fill="#000000">0.25639</text>
</g>
<!-- __main__.Node object at 0x7f2f01850b70&#45;&gt;__main__.Node object at 0x7f2f01859c88 -->
<g id="edge47" class="edge">
<title>__main__.Node object at 0x7f2f01850b70&#45;&gt;__main__.Node object at 0x7f2f01859c88</title>
<path fill="none" stroke="#000000" d="M778.6411,-534.8326C832.7725,-540.1721 957.8288,-553.9679 1061,-576.3014 1066.5397,-577.5005 1072.3718,-578.9169 1078.0473,-580.3803"/>
<polygon fill="#000000" stroke="#000000" points="1077.433,-583.8386 1087.9968,-583.0285 1079.2335,-577.0741 1077.433,-583.8386"/>
<text text-anchor="middle" x="933.5" y="-562.1014" font-family="Times,serif" font-size="14.00" fill="#000000">&#45;0.365377</text>
</g>
<!-- __main__.Node object at 0x7f2f01859898&#45;&gt;__main__.Node object at 0x7f2f01865ef0 -->
<g id="edge48" class="edge">
<title>__main__.Node object at 0x7f2f01859898&#45;&gt;__main__.Node object at 0x7f2f01865ef0</title>
<path fill="none" stroke="#000000" d="M598.0969,-840.1133C606.3515,-841.4207 615.5301,-842.6536 624,-843.3014 656.35,-845.7753 664.605,-845.0923 697,-843.3014 938.5498,-829.9477 999.3858,-823.1502 1238,-783.3014 1240.6289,-782.8623 1243.3177,-782.3796 1246.0275,-781.8664"/>
<polygon fill="#000000" stroke="#000000" points="1246.7439,-785.2925 1255.8629,-779.8985 1245.3705,-778.4285 1246.7439,-785.2925"/>
<text text-anchor="middle" x="933.5" y="-833.1014" font-family="Times,serif" font-size="14.00" fill="#000000">0.29361</text>
</g>
<!-- __main__.Node object at 0x7f2f01859898&#45;&gt;__main__.Node object at 0x7f2f01859a58 -->
<g id="edge49" class="edge">
<title>__main__.Node object at 0x7f2f01859898&#45;&gt;__main__.Node object at 0x7f2f01859a58</title>
<path fill="none" stroke="#000000" d="M598.8667,-832.0019C624.8944,-828.0899 665.0124,-820.1401 697,-805.3014 707.7601,-800.3099 718.5182,-793.0255 727.599,-786.0365"/>
<polygon fill="#000000" stroke="#000000" points="729.8003,-788.7577 735.4189,-779.7754 725.4252,-783.2934 729.8003,-788.7577"/>
<text text-anchor="middle" x="660.5" y="-831.1014" font-family="Times,serif" font-size="14.00" fill="#000000">&#45;0.019246</text>
</g>
<!-- __main__.Node object at 0x7f2f01859898&#45;&gt;__main__.Node object at 0x7f2f018597b8 -->
<g id="edge50" class="edge">
<title>__main__.Node object at 0x7f2f01859898&#45;&gt;__main__.Node object at 0x7f2f018597b8</title>
<path fill="none" stroke="#000000" d="M588.5987,-849.6231C594.3678,-854.9305 600.7124,-861.1574 606,-867.3014 615.1678,-877.9541 612.687,-884.9618 624,-893.3014 651.3811,-913.4858 664.8019,-905.3278 697,-916.3014 703.8583,-918.6388 711.1627,-921.2406 718.1216,-923.7741"/>
<polygon fill="#000000" stroke="#000000" points="717.3845,-927.2321 727.9781,-927.3981 719.8002,-920.6621 717.3845,-927.2321"/>
<text text-anchor="middle" x="660.5" y="-920.1014" font-family="Times,serif" font-size="14.00" fill="#000000">0.453397</text>
</g>
<!-- __main__.Node object at 0x7f2f01859898&#45;&gt;__main__.Node object at 0x7f2f01856dd8 -->
<g id="edge51" class="edge">
<title>__main__.Node object at 0x7f2f01859898&#45;&gt;__main__.Node object at 0x7f2f01856dd8</title>
<path fill="none" stroke="#000000" d="M589.1065,-849.4792C598.7259,-856.5569 611.3223,-864.4206 624,-868.3014 666.6432,-881.3549 968.4817,-882.4128 1075.4939,-882.3719"/>
<polygon fill="#000000" stroke="#000000" points="1075.8143,-885.8717 1085.8117,-882.3642 1075.809,-878.8717 1075.8143,-885.8717"/>
<text text-anchor="middle" x="842.5" y="-884.1014" font-family="Times,serif" font-size="14.00" fill="#000000">0.722845</text>
</g>
<!-- __main__.Node object at 0x7f2f01859a58&#45;&gt;__main__.Node object at 0x7f2f01865ef0 -->
<g id="edge52" class="edge">
<title>__main__.Node object at 0x7f2f01859a58&#45;&gt;__main__.Node object at 0x7f2f01865ef0</title>
<path fill="none" stroke="#000000" d="M778.5018,-765.5493C864.5476,-766.3394 1133.2253,-768.8066 1245.6957,-769.8394"/>
<polygon fill="#000000" stroke="#000000" points="1245.7304,-773.3398 1255.7621,-769.9319 1245.7947,-766.3401 1245.7304,-773.3398"/>
<text text-anchor="middle" x="1024.5" y="-771.1014" font-family="Times,serif" font-size="14.00" fill="#000000">1.0</text>
</g>
<!-- __main__.Node object at 0x7f2f01859a58&#45;&gt;__main__.Node object at 0x7f2f01859c88 -->
<g id="edge54" class="edge">
<title>__main__.Node object at 0x7f2f01859a58&#45;&gt;__main__.Node object at 0x7f2f01859c88</title>
<path fill="none" stroke="#000000" d="M776.8156,-759.0193C831.8444,-744.5871 965.112,-705.3762 1061,-642.3014 1072.7831,-634.5505 1084.0797,-623.8061 1093.1157,-614.0949"/>
<polygon fill="#000000" stroke="#000000" points="1095.7647,-616.3834 1099.8438,-606.6053 1090.5573,-611.7055 1095.7647,-616.3834"/>
<text text-anchor="middle" x="933.5" y="-724.1014" font-family="Times,serif" font-size="14.00" fill="#000000">&#45;0.173657</text>
</g>
<!-- __main__.Node object at 0x7f2f01859a58&#45;&gt;__main__.Node object at 0x7f2f01859c18 -->
<g id="edge53" class="edge">
<title>__main__.Node object at 0x7f2f01859a58&#45;&gt;__main__.Node object at 0x7f2f01859c18</title>
<path fill="none" stroke="#000000" d="M753.3738,-783.416C757.4268,-812.8561 769.7887,-870.8524 806,-901.3014 831.0301,-922.3484 868.4389,-928.2361 896.2699,-929.3731"/>
<polygon fill="#000000" stroke="#000000" points="896.3466,-932.8756 906.4217,-929.598 896.5017,-925.8773 896.3466,-932.8756"/>
<text text-anchor="middle" x="842.5" y="-931.1014" font-family="Times,serif" font-size="14.00" fill="#000000">0.021861</text>
</g>
<!-- __main__.Node object at 0x7f2f01857160&#45;&gt;__main__.Node object at 0x7f2f01865ef0 -->
<g id="edge55" class="edge">
<title>__main__.Node object at 0x7f2f01857160&#45;&gt;__main__.Node object at 0x7f2f01865ef0</title>
<path fill="none" stroke="#000000" d="M958.9161,-448.5524C1017.6907,-434.6506 1163.6448,-410.2067 1238,-487.3014 1273.0518,-523.6445 1288.8455,-677.8897 1293.9912,-742.0871"/>
<polygon fill="#000000" stroke="#000000" points="1290.519,-742.5838 1294.779,-752.2844 1297.4982,-742.0445 1290.519,-742.5838"/>
<text text-anchor="middle" x="1113" y="-443.1014" font-family="Times,serif" font-size="14.00" fill="#000000">0.779163</text>
</g>
<!-- __main__.Node object at 0x7f2f01857160&#45;&gt;__main__.Node object at 0x7f2f01859c88 -->
<g id="edge56" class="edge">
<title>__main__.Node object at 0x7f2f01857160&#45;&gt;__main__.Node object at 0x7f2f01859c88</title>
<path fill="none" stroke="#000000" d="M959.3751,-449.744C987.1919,-445.319 1031.3956,-442.9454 1061,-464.3014 1092.4511,-486.9895 1104.9445,-532.2623 1109.8633,-561.9081"/>
<polygon fill="#000000" stroke="#000000" points="1106.4373,-562.6676 1111.3539,-572.0525 1113.3629,-561.6499 1106.4373,-562.6676"/>
<text text-anchor="middle" x="1024.5" y="-468.1014" font-family="Times,serif" font-size="14.00" fill="#000000">&#45;0.671628</text>
</g>
<!-- __main__.Node object at 0x7f2f01859c88&#45;&gt;__main__.Node object at 0x7f2f01865ef0 -->
<g id="edge57" class="edge">
<title>__main__.Node object at 0x7f2f01859c88&#45;&gt;__main__.Node object at 0x7f2f01865ef0</title>
<path fill="none" stroke="#000000" d="M1130.1821,-604.6636C1154.8528,-625.5422 1201.3723,-665.8776 1238,-703.3014 1250.7117,-716.2893 1264.0414,-731.5565 1274.7122,-744.2343"/>
<polygon fill="#000000" stroke="#000000" points="1272.2143,-746.7038 1281.3074,-752.1415 1277.59,-742.2202 1272.2143,-746.7038"/>
<text text-anchor="middle" x="1201.5" y="-707.1014" font-family="Times,serif" font-size="14.00" fill="#000000">&#45;0.814881</text>
</g>
<!-- __main__.Node object at 0x7f2f01859c18&#45;&gt;__main__.Node object at 0x7f2f01865ef0 -->
<g id="edge58" class="edge">
<title>__main__.Node object at 0x7f2f01859c18&#45;&gt;__main__.Node object at 0x7f2f01865ef0</title>
<path fill="none" stroke="#000000" d="M959.9455,-932.3062C1017.7139,-939.4826 1156.5114,-947.9551 1238,-879.3014 1263.3585,-857.9369 1279.2481,-822.5937 1287.8531,-797.9655"/>
<polygon fill="#000000" stroke="#000000" points="1291.1795,-799.054 1291.0007,-788.4606 1284.5344,-796.8533 1291.1795,-799.054"/>
<text text-anchor="middle" x="1113" y="-938.1014" font-family="Times,serif" font-size="14.00" fill="#000000">0.944986</text>
</g>
<!-- __main__.Node object at 0x7f2f01859c18&#45;&gt;__main__.Node object at 0x7f2f01856dd8 -->
<g id="edge59" class="edge">
<title>__main__.Node object at 0x7f2f01859c18&#45;&gt;__main__.Node object at 0x7f2f01856dd8</title>
<path fill="none" stroke="#000000" d="M958.8373,-921.8082C989.974,-913.8289 1042.9717,-900.2473 1077.9865,-891.2742"/>
<polygon fill="#000000" stroke="#000000" points="1078.9735,-894.6344 1087.7916,-888.7614 1077.2358,-887.8535 1078.9735,-894.6344"/>
<text text-anchor="middle" x="1024.5" y="-917.1014" font-family="Times,serif" font-size="14.00" fill="#000000">0.137982</text>
</g>
<!-- __main__.Node object at 0x7f2f018597b8&#45;&gt;__main__.Node object at 0x7f2f01865ef0 -->
<g id="edge60" class="edge">
<title>__main__.Node object at 0x7f2f018597b8&#45;&gt;__main__.Node object at 0x7f2f01865ef0</title>
<path fill="none" stroke="#000000" d="M777.3472,-941.9575C841.0684,-954.9266 1010.4306,-983.4547 1147,-953.3014 1190.3167,-943.7374 1207.1951,-944.221 1238,-912.3014 1268.9029,-880.2801 1284.1752,-829.5564 1291.0552,-798.1915"/>
<polygon fill="#000000" stroke="#000000" points="1294.4926,-798.8518 1293.0771,-788.3519 1287.6358,-797.4427 1294.4926,-798.8518"/>
<text text-anchor="middle" x="1024.5" y="-970.1014" font-family="Times,serif" font-size="14.00" fill="#000000">0.694988</text>
</g>
<!-- __main__.Node object at 0x7f2f01856dd8&#45;&gt;__main__.Node object at 0x7f2f01865ef0 -->
<g id="edge61" class="edge">
<title>__main__.Node object at 0x7f2f01856dd8&#45;&gt;__main__.Node object at 0x7f2f01865ef0</title>
<path fill="none" stroke="#000000" d="M1136.6377,-873.3138C1162.5964,-862.9184 1204.9788,-844.3733 1238,-822.3014 1249.622,-814.533 1261.3147,-804.5601 1271.1262,-795.4295"/>
<polygon fill="#000000" stroke="#000000" points="1273.733,-797.78 1278.5543,-788.3457 1268.902,-792.7143 1273.733,-797.78"/>
<text text-anchor="middle" x="1201.5" y="-864.1014" font-family="Times,serif" font-size="14.00" fill="#000000">1.0</text>
</g>
</g>
</svg>
