<?xml version="1.0" encoding="UTF-8" standalone="no"?>
<!DOCTYPE svg PUBLIC "-//W3C//DTD SVG 1.1//EN"
 "http://www.w3.org/Graphics/SVG/1.1/DTD/svg11.dtd">
<!-- Generated by graphviz version 2.40.1 (0)
 -->
<!-- Title: %3 Pages: 1 -->
<svg width="885pt" height="316pt"
 viewBox="0.00 0.00 885.44 315.60" xmlns="http://www.w3.org/2000/svg" xmlns:xlink="http://www.w3.org/1999/xlink">
<g id="graph0" class="graph" transform="scale(1 1) rotate(0) translate(4 311.5959)">
<title>%3</title>
<polygon fill="#ffffff" stroke="transparent" points="-4,4 -4,-311.5959 881.4427,-311.5959 881.4427,4 -4,4"/>
<!-- __main__.Node object at 0x7f2b3925a0f0 -->
<g id="node1" class="node">
<title>__main__.Node object at 0x7f2b3925a0f0</title>
<polygon fill="none" stroke="#000000" points="209.6645,-123.13 129.4951,-123.13 104.7214,-199.2879 79.9476,-123.13 -.2218,-123.13 64.6366,-76.0619 39.8629,.096 104.7214,-46.9721 169.5798,.096 144.8061,-76.0619 209.6645,-123.13"/>
<text text-anchor="middle" x="104.7214" y="-95.8959" font-family="Times,serif" font-size="14.00" fill="#000000">output_0</text>
</g>
<!-- __main__.Node object at 0x7f2b3925a160 -->
<g id="node2" class="node">
<title>__main__.Node object at 0x7f2b3925a160</title>
<polygon fill="none" stroke="#000000" points="329.4427,-162.5959 277.4427,-162.5959 277.4427,-138.5959 329.4427,-138.5959 329.4427,-132.5959 347.4427,-150.5959 329.4427,-168.5959 329.4427,-162.5959"/>
<text text-anchor="middle" x="312.4427" y="-146.8959" font-family="Times,serif" font-size="14.00" fill="#000000">input_1</text>
</g>
<!-- __main__.Node object at 0x7f2b3925a0f0&#45;&gt;__main__.Node object at 0x7f2b3925a160 -->
<g id="edge1" class="edge">
<title>__main__.Node object at 0x7f2b3925a0f0&#45;&gt;__main__.Node object at 0x7f2b3925a160</title>
<path fill="none" stroke="#000000" d="M200.6776,-123.1552C223.8515,-128.8449 247.5532,-134.6642 267.1321,-139.4712"/>
<polygon fill="#000000" stroke="#000000" points="266.424,-142.9012 276.9702,-141.8867 268.0932,-136.1031 266.424,-142.9012"/>
<text text-anchor="middle" x="243.4427" y="-140.3959" font-family="Times,serif" font-size="14.00" fill="#000000">0.07</text>
</g>
<!-- __main__.Node object at 0x7f2b3925a278 -->
<g id="node7" class="node">
<title>__main__.Node object at 0x7f2b3925a278</title>
<ellipse fill="none" stroke="#000000" cx="447.4427" cy="-99.5959" rx="27" ry="18"/>
</g>
<!-- __main__.Node object at 0x7f2b3925a0f0&#45;&gt;__main__.Node object at 0x7f2b3925a278 -->
<g id="edge2" class="edge">
<title>__main__.Node object at 0x7f2b3925a0f0&#45;&gt;__main__.Node object at 0x7f2b3925a278</title>
<path fill="none" stroke="#000000" d="M177.4037,-99.5959C248.6566,-99.5959 354.4385,-99.5959 410.0957,-99.5959"/>
<polygon fill="#000000" stroke="#000000" points="410.2097,-103.096 420.2096,-99.5959 410.2096,-96.096 410.2097,-103.096"/>
<text text-anchor="middle" x="312.4427" y="-103.3959" font-family="Times,serif" font-size="14.00" fill="#000000">&#45;0.2</text>
</g>
<!-- __main__.Node object at 0x7f2b3925a160&#45;&gt;__main__.Node object at 0x7f2b3925a278 -->
<g id="edge3" class="edge">
<title>__main__.Node object at 0x7f2b3925a160&#45;&gt;__main__.Node object at 0x7f2b3925a278</title>
<path fill="none" stroke="#000000" d="M347.56,-137.3294C368.1043,-129.5682 393.8938,-119.8255 414.1209,-112.1842"/>
<polygon fill="#000000" stroke="#000000" points="415.4386,-115.4279 423.5564,-108.6197 412.9647,-108.8796 415.4386,-115.4279"/>
<text text-anchor="middle" x="383.9427" y="-133.3959" font-family="Times,serif" font-size="14.00" fill="#000000">&#45;0.46</text>
</g>
<!-- __main__.Node object at 0x7f2b3925a198 -->
<g id="node3" class="node">
<title>__main__.Node object at 0x7f2b3925a198</title>
<polygon fill="none" stroke="#000000" points="737.4427,-111.5959 685.4427,-111.5959 685.4427,-87.5959 737.4427,-87.5959 737.4427,-81.5959 755.4427,-99.5959 737.4427,-117.5959 737.4427,-111.5959"/>
<text text-anchor="middle" x="720.4427" y="-95.8959" font-family="Times,serif" font-size="14.00" fill="#000000">input_2</text>
</g>
<!-- __main__.Node object at 0x7f2b3925a2b0 -->
<g id="node8" class="node">
<title>__main__.Node object at 0x7f2b3925a2b0</title>
<ellipse fill="none" stroke="#000000" cx="850.4427" cy="-69.5959" rx="27" ry="18"/>
</g>
<!-- __main__.Node object at 0x7f2b3925a198&#45;&gt;__main__.Node object at 0x7f2b3925a2b0 -->
<g id="edge4" class="edge">
<title>__main__.Node object at 0x7f2b3925a198&#45;&gt;__main__.Node object at 0x7f2b3925a2b0</title>
<path fill="none" stroke="#000000" d="M755.6226,-91.4775C774.022,-87.2315 796.4913,-82.0463 814.9382,-77.7893"/>
<polygon fill="#000000" stroke="#000000" points="815.7644,-81.1907 824.7213,-75.5316 814.1903,-74.3699 815.7644,-81.1907"/>
<text text-anchor="middle" x="789.4427" y="-91.3959" font-family="Times,serif" font-size="14.00" fill="#000000">0.96</text>
</g>
<!-- __main__.Node object at 0x7f2b3925a1d0 -->
<g id="node4" class="node">
<title>__main__.Node object at 0x7f2b3925a1d0</title>
<polygon fill="none" stroke="#000000" points="599.4427,-111.5959 547.4427,-111.5959 547.4427,-87.5959 599.4427,-87.5959 599.4427,-81.5959 617.4427,-99.5959 599.4427,-117.5959 599.4427,-111.5959"/>
<text text-anchor="middle" x="582.4427" y="-95.8959" font-family="Times,serif" font-size="14.00" fill="#000000">input_3</text>
</g>
<!-- __main__.Node object at 0x7f2b3925a1d0&#45;&gt;__main__.Node object at 0x7f2b3925a198 -->
<g id="edge5" class="edge">
<title>__main__.Node object at 0x7f2b3925a1d0&#45;&gt;__main__.Node object at 0x7f2b3925a198</title>
<path fill="none" stroke="#000000" d="M617.623,-99.5959C635.1413,-99.5959 656.5236,-99.5959 675.2426,-99.5959"/>
<polygon fill="#000000" stroke="#000000" points="675.3267,-103.096 685.3267,-99.5959 675.3266,-96.096 675.3267,-103.096"/>
<text text-anchor="middle" x="651.4427" y="-103.3959" font-family="Times,serif" font-size="14.00" fill="#000000">0.05</text>
</g>
<!-- __main__.Node object at 0x7f2b3925a208 -->
<g id="node5" class="node">
<title>__main__.Node object at 0x7f2b3925a208</title>
<polygon fill="none" stroke="#000000" points="121.7214,-247.5959 69.7214,-247.5959 69.7214,-223.5959 121.7214,-223.5959 121.7214,-217.5959 139.7214,-235.5959 121.7214,-253.5959 121.7214,-247.5959"/>
<text text-anchor="middle" x="104.7214" y="-231.8959" font-family="Times,serif" font-size="14.00" fill="#000000">input_4</text>
</g>
<!-- __main__.Node object at 0x7f2b3925a240 -->
<g id="node6" class="node">
<title>__main__.Node object at 0x7f2b3925a240</title>
<polygon fill="none" stroke="#000000" points="121.7214,-301.5959 69.7214,-301.5959 69.7214,-277.5959 121.7214,-277.5959 121.7214,-271.5959 139.7214,-289.5959 121.7214,-307.5959 121.7214,-301.5959"/>
<text text-anchor="middle" x="104.7214" y="-285.8959" font-family="Times,serif" font-size="14.00" fill="#000000">input_5</text>
</g>
<!-- __main__.Node object at 0x7f2b3925a278&#45;&gt;__main__.Node object at 0x7f2b3925a1d0 -->
<g id="edge6" class="edge">
<title>__main__.Node object at 0x7f2b3925a278&#45;&gt;__main__.Node object at 0x7f2b3925a1d0</title>
<path fill="none" stroke="#000000" d="M474.762,-99.5959C492.6236,-99.5959 516.3871,-99.5959 537.0457,-99.5959"/>
<polygon fill="#000000" stroke="#000000" points="537.2072,-103.096 547.2072,-99.5959 537.2072,-96.096 537.2072,-103.096"/>
<text text-anchor="middle" x="510.9427" y="-103.3959" font-family="Times,serif" font-size="14.00" fill="#000000">&#45;0.86</text>
</g>
<!-- __main__.Node object at 0x7f2b3925a2b0&#45;&gt;__main__.Node object at 0x7f2b3925a0f0 -->
<g id="edge7" class="edge">
<title>__main__.Node object at 0x7f2b3925a2b0&#45;&gt;__main__.Node object at 0x7f2b3925a0f0</title>
<path fill="none" stroke="#000000" d="M824.1671,-64.4454C797.9908,-59.7681 756.5989,-53.5959 720.4427,-53.5959 312.4427,-53.5959 312.4427,-53.5959 312.4427,-53.5959 261.1502,-53.5959 204.3825,-67.1315 163.1726,-79.5179"/>
<polygon fill="#000000" stroke="#000000" points="162.1034,-76.1849 153.5721,-82.4672 164.1591,-82.8763 162.1034,-76.1849"/>
<text text-anchor="middle" x="510.9427" y="-57.3959" font-family="Times,serif" font-size="14.00" fill="#000000">&#45;0.11</text>
</g>
</g>
</svg>
