<?xml version="1.0" encoding="UTF-8" standalone="no"?>
<!DOCTYPE svg PUBLIC "-//W3C//DTD SVG 1.1//EN"
 "http://www.w3.org/Graphics/SVG/1.1/DTD/svg11.dtd">
<!-- Generated by graphviz version 2.40.1 (0)
 -->
<!-- Title: %3 Pages: 1 -->
<svg width="1351pt" height="1089pt"
 viewBox="0.00 0.00 1351.00 1089.00" xmlns="http://www.w3.org/2000/svg" xmlns:xlink="http://www.w3.org/1999/xlink">
<g id="graph0" class="graph" transform="scale(1 1) rotate(0) translate(4 1085)">
<title>%3</title>
<polygon fill="#ffffff" stroke="transparent" points="-4,4 -4,-1085 1347,-1085 1347,4 -4,4"/>
<!-- pyneat.Node object at 0x7f8af5105898 -->
<g id="node1" class="node">
<title>pyneat.Node object at 0x7f8af5105898</title>
<polygon fill="#d62728" stroke="#000000" points="1325,-420 1263,-420 1263,-396 1325,-396 1325,-390 1343,-408 1325,-426 1325,-420"/>
<text text-anchor="middle" x="1303" y="-404.3" font-family="Times,serif" font-size="14.00" fill="#000000">output_0</text>
</g>
<!-- pyneat.Node object at 0x7f8af5105908 -->
<g id="node2" class="node">
<title>pyneat.Node object at 0x7f8af5105908</title>
<polygon fill="#1f77b4" stroke="#000000" points="52,-424 0,-424 0,-400 52,-400 52,-394 70,-412 52,-430 52,-424"/>
<text text-anchor="middle" x="35" y="-408.3" font-family="Times,serif" font-size="14.00" fill="#000000">input_1</text>
</g>
<!-- pyneat.Node object at 0x7f8af5105908&#45;&gt;pyneat.Node object at 0x7f8af5105898 -->
<g id="edge1" class="edge">
<title>pyneat.Node object at 0x7f8af5105908&#45;&gt;pyneat.Node object at 0x7f8af5105898</title>
<path fill="none" stroke="#000000" d="M40.4697,-430.0585C48.311,-456.6948 62.6139,-508.2052 70,-553 77.8002,-600.3062 68.2876,-724.2949 88,-768 112.0388,-821.2973 133.9464,-825.7355 179,-863 216.1425,-893.7212 226.4281,-901.3881 270,-922 369.6924,-969.1601 602.9279,-1028 667.5,-1028 667.5,-1028 667.5,-1028 1120,-1028 1245.1469,-1028 1291.1307,-557.461 1300.9019,-436.2201"/>
<polygon fill="#000000" stroke="#000000" points="1304.3935,-436.4634 1301.6889,-426.2197 1297.4151,-435.9142 1304.3935,-436.4634"/>
<text text-anchor="middle" x="667.5" y="-1031.8" font-family="Times,serif" font-size="14.00" fill="#000000">0.002483</text>
</g>
<!-- pyneat.Node object at 0x7f8af51059b0 -->
<g id="node5" class="node">
<title>pyneat.Node object at 0x7f8af51059b0</title>
<polygon fill="#1f77b4" stroke="#000000" points="232.5,-430 180.5,-430 180.5,-406 232.5,-406 232.5,-400 250.5,-418 232.5,-436 232.5,-430"/>
<text text-anchor="middle" x="215.5" y="-414.3" font-family="Times,serif" font-size="14.00" fill="#000000">input_4</text>
</g>
<!-- pyneat.Node object at 0x7f8af5105908&#45;&gt;pyneat.Node object at 0x7f8af51059b0 -->
<g id="edge2" class="edge">
<title>pyneat.Node object at 0x7f8af5105908&#45;&gt;pyneat.Node object at 0x7f8af51059b0</title>
<path fill="none" stroke="#000000" d="M70.2307,-413.1711C98.8051,-414.1209 139.2785,-415.4663 170.25,-416.4958"/>
<polygon fill="#000000" stroke="#000000" points="170.2474,-419.9976 180.3582,-416.8318 170.48,-413.0015 170.2474,-419.9976"/>
<text text-anchor="middle" x="124.5" y="-419.8" font-family="Times,serif" font-size="14.00" fill="#000000">0.060305</text>
</g>
<!-- pyneat.Node object at 0x7f8af51059e8 -->
<g id="node6" class="node">
<title>pyneat.Node object at 0x7f8af51059e8</title>
<polygon fill="#1f77b4" stroke="#000000" points="413,-360 361,-360 361,-336 413,-336 413,-330 431,-348 413,-366 413,-360"/>
<text text-anchor="middle" x="396" y="-344.3" font-family="Times,serif" font-size="14.00" fill="#000000">input_5</text>
</g>
<!-- pyneat.Node object at 0x7f8af5105908&#45;&gt;pyneat.Node object at 0x7f8af51059e8 -->
<g id="edge3" class="edge">
<title>pyneat.Node object at 0x7f8af5105908&#45;&gt;pyneat.Node object at 0x7f8af51059e8</title>
<path fill="none" stroke="#000000" d="M59.4254,-393.8044C63.0326,-390.9324 66.6573,-387.9391 70,-385 78.4965,-377.5294 77.6858,-371.6495 88,-367 174.3377,-328.0805 288.2998,-333.8509 350.5683,-341.1502"/>
<polygon fill="#000000" stroke="#000000" points="350.4861,-344.6667 360.8409,-342.424 351.3476,-337.7199 350.4861,-344.6667"/>
<text text-anchor="middle" x="215.5" y="-344.8" font-family="Times,serif" font-size="14.00" fill="#000000">0.158139</text>
</g>
<!-- pyneat.Node object at 0x7f8af5105a58 -->
<g id="node8" class="node">
<title>pyneat.Node object at 0x7f8af5105a58</title>
<ellipse fill="#2ca02c" stroke="#000000" cx="576.5" cy="-682" rx="27" ry="18"/>
</g>
<!-- pyneat.Node object at 0x7f8af5105908&#45;&gt;pyneat.Node object at 0x7f8af5105a58 -->
<g id="edge4" class="edge">
<title>pyneat.Node object at 0x7f8af5105908&#45;&gt;pyneat.Node object at 0x7f8af5105a58</title>
<path fill="none" stroke="#000000" d="M39.2144,-430.2997C55.4419,-498.9788 116.1241,-739.5655 179,-781 300.905,-861.3339 482.9037,-749.171 550.2315,-701.5762"/>
<polygon fill="#000000" stroke="#000000" points="552.5057,-704.2523 558.5909,-695.5792 548.4253,-698.5645 552.5057,-704.2523"/>
<text text-anchor="middle" x="306.5" y="-812.8" font-family="Times,serif" font-size="14.00" fill="#000000">0.759968</text>
</g>
<!-- pyneat.Node object at 0x7f8af5105b38 -->
<g id="node12" class="node">
<title>pyneat.Node object at 0x7f8af5105b38</title>
<ellipse fill="#2ca02c" stroke="#000000" cx="940.5" cy="-700" rx="27" ry="18"/>
</g>
<!-- pyneat.Node object at 0x7f8af5105908&#45;&gt;pyneat.Node object at 0x7f8af5105b38 -->
<g id="edge5" class="edge">
<title>pyneat.Node object at 0x7f8af5105908&#45;&gt;pyneat.Node object at 0x7f8af5105b38</title>
<path fill="none" stroke="#000000" d="M40.2333,-430.0999C47.7803,-456.7878 61.72,-508.3617 70,-553 81.8437,-616.8499 62.2739,-638.3741 88,-698 177.1353,-904.5906 317.9995,-889.3862 540,-926 651.8261,-944.4431 694.6086,-980.6004 795,-928 807.4492,-921.4772 801.9468,-910.6808 813,-902 840.3286,-880.5371 864.0784,-900.962 886,-874 917.5286,-835.2221 887.1948,-810.0676 904,-763 908.7625,-749.6613 916.3482,-735.9302 923.3735,-724.7054"/>
<polygon fill="#000000" stroke="#000000" points="926.3219,-726.5915 928.8228,-716.296 920.4474,-722.7847 926.3219,-726.5915"/>
<text text-anchor="middle" x="485.5" y="-925.8" font-family="Times,serif" font-size="14.00" fill="#000000">0.299378</text>
</g>
<!-- pyneat.Node object at 0x7f8af5105940 -->
<g id="node3" class="node">
<title>pyneat.Node object at 0x7f8af5105940</title>
<polygon fill="#1f77b4" stroke="#000000" points="52,-370 0,-370 0,-346 52,-346 52,-340 70,-358 52,-376 52,-370"/>
<text text-anchor="middle" x="35" y="-354.3" font-family="Times,serif" font-size="14.00" fill="#000000">input_2</text>
</g>
<!-- pyneat.Node object at 0x7f8af5105940&#45;&gt;pyneat.Node object at 0x7f8af5105898 -->
<g id="edge6" class="edge">
<title>pyneat.Node object at 0x7f8af5105940&#45;&gt;pyneat.Node object at 0x7f8af5105898</title>
<path fill="none" stroke="#000000" d="M35.8914,-339.6228C39.0978,-280.5787 51.8361,-96.9479 88,-52 126.3631,-4.3187 154.3017,0 215.5,0 215.5,0 215.5,0 1120,0 1185.0181,0 1208.3559,-22.2918 1245,-76 1278.7978,-125.5366 1295.6566,-308.5945 1301.0342,-379.596"/>
<polygon fill="#000000" stroke="#000000" points="1297.5467,-379.8957 1301.7724,-389.6114 1304.5278,-379.3812 1297.5467,-379.8957"/>
<text text-anchor="middle" x="667.5" y="-3.8" font-family="Times,serif" font-size="14.00" fill="#000000">&#45;0.896722</text>
</g>
<!-- pyneat.Node object at 0x7f8af5105940&#45;&gt;pyneat.Node object at 0x7f8af51059b0 -->
<g id="edge7" class="edge">
<title>pyneat.Node object at 0x7f8af5105940&#45;&gt;pyneat.Node object at 0x7f8af51059b0</title>
<path fill="none" stroke="#000000" d="M70.1701,-366.6711C95.67,-373.29 130.8291,-383.1043 161,-394 164.259,-395.1769 167.5989,-396.4571 170.9425,-397.7932"/>
<polygon fill="#000000" stroke="#000000" points="169.733,-401.0805 180.3115,-401.6678 172.4082,-394.6118 169.733,-401.0805"/>
<text text-anchor="middle" x="124.5" y="-397.8" font-family="Times,serif" font-size="14.00" fill="#000000">&#45;0.535011</text>
</g>
<!-- pyneat.Node object at 0x7f8af5105940&#45;&gt;pyneat.Node object at 0x7f8af51059e8 -->
<g id="edge8" class="edge">
<title>pyneat.Node object at 0x7f8af5105940&#45;&gt;pyneat.Node object at 0x7f8af51059e8</title>
<path fill="none" stroke="#000000" d="M42.0717,-339.9942C50.3089,-321.3938 65.6973,-292.9044 88,-277 121.9647,-252.7792 137.6029,-259.1505 179,-254 252.0391,-244.9127 281.7819,-236.1389 343,-277 359.4221,-287.9612 372.7005,-305.7803 381.8591,-320.8243"/>
<polygon fill="#000000" stroke="#000000" points="378.9835,-322.8432 387.0205,-329.7467 385.0427,-319.3381 378.9835,-322.8432"/>
<text text-anchor="middle" x="215.5" y="-257.8" font-family="Times,serif" font-size="14.00" fill="#000000">&#45;0.156739</text>
</g>
<!-- pyneat.Node object at 0x7f8af5105940&#45;&gt;pyneat.Node object at 0x7f8af5105a58 -->
<g id="edge9" class="edge">
<title>pyneat.Node object at 0x7f8af5105940&#45;&gt;pyneat.Node object at 0x7f8af5105a58</title>
<path fill="none" stroke="#000000" d="M62.1268,-376.2879C65.0284,-378.9788 67.7405,-381.8987 70,-385 83.9077,-404.0893 73.2035,-416.591 88,-435 112.0248,-464.8902 138.8347,-449.7059 161,-481 181.8141,-510.3864 155.8224,-532.4393 179,-560 271.2657,-669.7139 459.5784,-682.6258 539.4073,-682.8987"/>
<polygon fill="#000000" stroke="#000000" points="539.4964,-686.3986 549.4852,-682.8667 539.474,-679.3986 539.4964,-686.3986"/>
<text text-anchor="middle" x="306.5" y="-659.8" font-family="Times,serif" font-size="14.00" fill="#000000">&#45;0.912512</text>
</g>
<!-- pyneat.Node object at 0x7f8af5105a90 -->
<g id="node9" class="node">
<title>pyneat.Node object at 0x7f8af5105a90</title>
<ellipse fill="#2ca02c" stroke="#000000" cx="758.5" cy="-658" rx="27" ry="18"/>
</g>
<!-- pyneat.Node object at 0x7f8af5105940&#45;&gt;pyneat.Node object at 0x7f8af5105a90 -->
<g id="edge10" class="edge">
<title>pyneat.Node object at 0x7f8af5105940&#45;&gt;pyneat.Node object at 0x7f8af5105a90</title>
<path fill="none" stroke="#000000" d="M63.1126,-376.1959C65.7686,-378.8714 68.1533,-381.8127 70,-385 99.4628,-435.8505 51.48,-469.9553 88,-516 109.5936,-543.2254 137.3053,-518.5822 161,-544 179.694,-564.0534 163.5478,-580.3542 179,-603 208.0681,-645.6004 222.4445,-655.0444 270,-675 411.2586,-734.2761 460.3881,-722.3143 613,-709 653.9094,-705.4309 665.7508,-707.9438 704,-693 713.7947,-689.1732 723.7061,-683.4718 732.3418,-677.7761"/>
<polygon fill="#000000" stroke="#000000" points="734.5807,-680.4834 740.821,-671.9213 730.6033,-674.7232 734.5807,-680.4834"/>
<text text-anchor="middle" x="396" y="-721.8" font-family="Times,serif" font-size="14.00" fill="#000000">0.745515</text>
</g>
<!-- pyneat.Node object at 0x7f8af5105940&#45;&gt;pyneat.Node object at 0x7f8af5105b38 -->
<g id="edge11" class="edge">
<title>pyneat.Node object at 0x7f8af5105940&#45;&gt;pyneat.Node object at 0x7f8af5105b38</title>
<path fill="none" stroke="#000000" d="M63.1812,-376.1567C65.8249,-378.8392 68.1879,-381.7929 70,-385 104.3331,-445.7647 54.8586,-479.5772 88,-541 108.077,-578.2098 136.4255,-567.5943 161,-602 174.001,-620.2022 164.5117,-631.9578 179,-649 209.3155,-684.6593 227.8003,-681.7565 270,-702 518.7167,-821.3113 643.5126,-909.5106 886,-778 896.8929,-772.0923 913.7356,-746.3213 925.8137,-725.9967"/>
<polygon fill="#000000" stroke="#000000" points="928.9695,-727.5331 930.9893,-717.1326 922.9245,-724.0035 928.9695,-727.5331"/>
<text text-anchor="middle" x="485.5" y="-820.8" font-family="Times,serif" font-size="14.00" fill="#000000">&#45;0.515819</text>
</g>
<!-- pyneat.Node object at 0x7f8af5105ba8 -->
<g id="node14" class="node">
<title>pyneat.Node object at 0x7f8af5105ba8</title>
<ellipse fill="#2ca02c" stroke="#000000" cx="940.5" cy="-240" rx="27" ry="18"/>
</g>
<!-- pyneat.Node object at 0x7f8af5105940&#45;&gt;pyneat.Node object at 0x7f8af5105ba8 -->
<g id="edge12" class="edge">
<title>pyneat.Node object at 0x7f8af5105940&#45;&gt;pyneat.Node object at 0x7f8af5105ba8</title>
<path fill="none" stroke="#000000" d="M36.4677,-339.8785C43.0269,-272.1846 75.8128,-38 215.5,-38 215.5,-38 215.5,-38 667.5,-38 771.7004,-38 828.484,-36.1113 886,-123 909.4793,-158.4698 880.0221,-181.8654 904,-217 905.6624,-219.436 907.677,-221.6667 909.896,-223.6977"/>
<polygon fill="#000000" stroke="#000000" points="907.9275,-226.5973 918.0134,-229.8415 912.152,-221.0157 907.9275,-226.5973"/>
<text text-anchor="middle" x="485.5" y="-41.8" font-family="Times,serif" font-size="14.00" fill="#000000">0.098762</text>
</g>
<!-- pyneat.Node object at 0x7f8af5105978 -->
<g id="node4" class="node">
<title>pyneat.Node object at 0x7f8af5105978</title>
<polygon fill="#1f77b4" stroke="#000000" points="52,-592 0,-592 0,-568 52,-568 52,-562 70,-580 52,-598 52,-592"/>
<text text-anchor="middle" x="35" y="-576.3" font-family="Times,serif" font-size="14.00" fill="#000000">input_3</text>
</g>
<!-- pyneat.Node object at 0x7f8af5105978&#45;&gt;pyneat.Node object at 0x7f8af5105898 -->
<g id="edge13" class="edge">
<title>pyneat.Node object at 0x7f8af5105978&#45;&gt;pyneat.Node object at 0x7f8af5105898</title>
<path fill="none" stroke="#000000" d="M35.9247,-598.0652C39.5425,-663.8746 54.2347,-890.2087 88,-953 123.8611,-1019.6886 139.7809,-1066 215.5,-1066 215.5,-1066 215.5,-1066 1120,-1066 1172.91,-1066 1212.9931,-1003.6739 1245,-925 1281.6276,-834.9684 1297.6635,-530.8881 1301.8423,-436.3133"/>
<polygon fill="#000000" stroke="#000000" points="1305.3489,-436.2328 1302.2834,-426.0911 1298.3554,-435.9309 1305.3489,-436.2328"/>
<text text-anchor="middle" x="667.5" y="-1069.8" font-family="Times,serif" font-size="14.00" fill="#000000">0.463196</text>
</g>
<!-- pyneat.Node object at 0x7f8af5105978&#45;&gt;pyneat.Node object at 0x7f8af51059b0 -->
<g id="edge14" class="edge">
<title>pyneat.Node object at 0x7f8af5105978&#45;&gt;pyneat.Node object at 0x7f8af51059b0</title>
<path fill="none" stroke="#000000" d="M55.3548,-561.7314C87.6694,-532.7288 150.7883,-476.0792 187.3939,-443.2254"/>
<polygon fill="#000000" stroke="#000000" points="190.1152,-445.486 195.2196,-436.2018 185.4396,-440.2764 190.1152,-445.486"/>
<text text-anchor="middle" x="124.5" y="-535.8" font-family="Times,serif" font-size="14.00" fill="#000000">0.218462</text>
</g>
<!-- pyneat.Node object at 0x7f8af5105978&#45;&gt;pyneat.Node object at 0x7f8af51059e8 -->
<g id="edge15" class="edge">
<title>pyneat.Node object at 0x7f8af5105978&#45;&gt;pyneat.Node object at 0x7f8af51059e8</title>
<path fill="none" stroke="#000000" d="M70.2405,-575.9149C96.246,-571.9572 132.002,-564.501 161,-551 252.7842,-508.2667 270.2967,-484.4606 343,-414 355.4325,-401.951 367.6468,-387.014 377.2107,-374.3989"/>
<polygon fill="#000000" stroke="#000000" points="380.2223,-376.2142 383.3785,-366.1004 374.6041,-372.0385 380.2223,-376.2142"/>
<text text-anchor="middle" x="215.5" y="-544.8" font-family="Times,serif" font-size="14.00" fill="#000000">0.257237</text>
</g>
<!-- pyneat.Node object at 0x7f8af5105978&#45;&gt;pyneat.Node object at 0x7f8af5105a58 -->
<g id="edge16" class="edge">
<title>pyneat.Node object at 0x7f8af5105978&#45;&gt;pyneat.Node object at 0x7f8af5105a58</title>
<path fill="none" stroke="#000000" d="M35.4135,-598.2225C37.1556,-656.685 45.9172,-837.8237 88,-874 124.5775,-905.4437 485.371,-915.3836 522,-884 541.8096,-867.0272 532.8496,-793.0871 540,-768 545.8721,-747.3979 555.4007,-725.1625 563.2498,-708.463"/>
<polygon fill="#000000" stroke="#000000" points="566.4643,-709.8543 567.6368,-699.3246 560.1537,-706.8249 566.4643,-709.8543"/>
<text text-anchor="middle" x="306.5" y="-906.8" font-family="Times,serif" font-size="14.00" fill="#000000">0.386803</text>
</g>
<!-- pyneat.Node object at 0x7f8af5105978&#45;&gt;pyneat.Node object at 0x7f8af5105a90 -->
<g id="edge17" class="edge">
<title>pyneat.Node object at 0x7f8af5105978&#45;&gt;pyneat.Node object at 0x7f8af5105a90</title>
<path fill="none" stroke="#000000" d="M35.347,-598.1202C36.9043,-659.0031 45.2109,-854.7641 88,-897 146.1085,-954.3574 188.4992,-917.092 270,-922 382.0516,-928.7478 419.1062,-949.8771 522,-905 619.1247,-862.6391 644.8354,-838.9045 704,-751 718.3613,-729.6626 708.7592,-718.0502 722,-696 725.4613,-690.2359 729.9438,-684.6492 734.5758,-679.6133"/>
<polygon fill="#000000" stroke="#000000" points="737.3409,-681.7929 741.8524,-672.2066 732.3475,-676.8872 737.3409,-681.7929"/>
<text text-anchor="middle" x="396" y="-935.8" font-family="Times,serif" font-size="14.00" fill="#000000">0.035957</text>
</g>
<!-- pyneat.Node object at 0x7f8af5105ac8 -->
<g id="node10" class="node">
<title>pyneat.Node object at 0x7f8af5105ac8</title>
<ellipse fill="#2ca02c" stroke="#000000" cx="576.5" cy="-357" rx="27" ry="18"/>
</g>
<!-- pyneat.Node object at 0x7f8af5105978&#45;&gt;pyneat.Node object at 0x7f8af5105ac8 -->
<g id="edge18" class="edge">
<title>pyneat.Node object at 0x7f8af5105978&#45;&gt;pyneat.Node object at 0x7f8af5105ac8</title>
<path fill="none" stroke="#000000" d="M39.5148,-561.6935C46.3568,-537.2352 61.4521,-493.7638 88,-466 113.2785,-439.5638 135.4899,-454.2128 161,-428 173.7541,-414.8946 165.938,-403.7986 179,-391 210.8168,-359.8248 228.3973,-364.9189 270,-349 309.5212,-333.8775 319.1547,-327.2922 361,-321 432.3595,-310.2698 452.0406,-324.3085 522,-342 528.3685,-343.6105 535.1327,-345.4043 541.6503,-347.1755"/>
<polygon fill="#000000" stroke="#000000" points="541.0268,-350.6339 551.5969,-349.9105 542.8827,-343.8844 541.0268,-350.6339"/>
<text text-anchor="middle" x="306.5" y="-352.8" font-family="Times,serif" font-size="14.00" fill="#000000">0.545371</text>
</g>
<!-- pyneat.Node object at 0x7f8af5105978&#45;&gt;pyneat.Node object at 0x7f8af5105b38 -->
<g id="edge19" class="edge">
<title>pyneat.Node object at 0x7f8af5105978&#45;&gt;pyneat.Node object at 0x7f8af5105b38</title>
<path fill="none" stroke="#000000" d="M36.5086,-598.1863C42.3276,-666.3026 64.1795,-903.6367 88,-927 144.168,-982.09 729.4369,-1009.4883 795,-966 810.9088,-955.4476 799.062,-940.0452 813,-927 838.3705,-903.2546 864.474,-926.2789 886,-899 923.7699,-851.136 884.3379,-820.7142 904,-763 908.5674,-749.5933 916.1288,-735.8537 923.1885,-724.6408"/>
<polygon fill="#000000" stroke="#000000" points="926.1347,-726.5303 928.6758,-716.2447 920.2752,-722.7008 926.1347,-726.5303"/>
<text text-anchor="middle" x="485.5" y="-989.8" font-family="Times,serif" font-size="14.00" fill="#000000">0.153514</text>
</g>
<!-- pyneat.Node object at 0x7f8af5105978&#45;&gt;pyneat.Node object at 0x7f8af5105ba8 -->
<g id="edge20" class="edge">
<title>pyneat.Node object at 0x7f8af5105978&#45;&gt;pyneat.Node object at 0x7f8af5105ba8</title>
<path fill="none" stroke="#000000" d="M39.9968,-561.8537C47.2492,-535.1082 60.8255,-483.463 70,-439 79.9224,-390.9125 67.7958,-374.751 88,-330 140.6413,-213.4028 156.6175,-166.2489 270,-107 392.6109,-42.9287 767.6326,-125.3919 886,-197 896.2321,-203.1901 894.8544,-209.2947 904,-217 906.2554,-218.9002 908.6805,-220.76 911.1697,-222.5468"/>
<polygon fill="#000000" stroke="#000000" points="909.4736,-225.6238 919.7265,-228.2937 913.3764,-219.8127 909.4736,-225.6238"/>
<text text-anchor="middle" x="485.5" y="-96.8" font-family="Times,serif" font-size="14.00" fill="#000000">&#45;0.37454</text>
</g>
<!-- pyneat.Node object at 0x7f8af5105c18 -->
<g id="node16" class="node">
<title>pyneat.Node object at 0x7f8af5105c18</title>
<ellipse fill="#2ca02c" stroke="#000000" cx="1120" cy="-324" rx="27" ry="18"/>
</g>
<!-- pyneat.Node object at 0x7f8af5105978&#45;&gt;pyneat.Node object at 0x7f8af5105c18 -->
<g id="edge21" class="edge">
<title>pyneat.Node object at 0x7f8af5105978&#45;&gt;pyneat.Node object at 0x7f8af5105c18</title>
<path fill="none" stroke="#000000" d="M39.4974,-561.8612C52.2565,-510.4102 87.7799,-367.222 88,-367 146.8116,-307.6658 187.7778,-334.7944 270,-320 619.0614,-257.1926 714.3994,-291.5178 1068,-319 1072.8856,-319.3797 1078.0253,-319.8219 1083.0942,-320.2832"/>
<polygon fill="#000000" stroke="#000000" points="1083.0113,-323.7908 1093.2952,-321.2432 1083.6672,-316.8216 1083.0113,-323.7908"/>
<text text-anchor="middle" x="576.5" y="-289.8" font-family="Times,serif" font-size="14.00" fill="#000000">&#45;0.84987</text>
</g>
<!-- pyneat.Node object at 0x7f8af51059b0&#45;&gt;pyneat.Node object at 0x7f8af5105898 -->
<g id="edge22" class="edge">
<title>pyneat.Node object at 0x7f8af51059b0&#45;&gt;pyneat.Node object at 0x7f8af5105898</title>
<path fill="none" stroke="#000000" d="M226.9215,-399.9882C235.1207,-386.25 245.7809,-366.5862 252,-348 267.4412,-301.8527 241.0036,-279.0795 270,-240 394.1269,-72.7096 514.9341,-138.7442 722,-116 953.2591,-90.5984 1085.205,31.0904 1245,-138 1277.8515,-172.7625 1294.7264,-317.3445 1300.5734,-379.4487"/>
<polygon fill="#000000" stroke="#000000" points="1297.1146,-380.0608 1301.5084,-389.7015 1304.0857,-379.425 1297.1146,-380.0608"/>
<text text-anchor="middle" x="758.5" y="-119.8" font-family="Times,serif" font-size="14.00" fill="#000000">&#45;0.312563</text>
</g>
<!-- pyneat.Node object at 0x7f8af51059b0&#45;&gt;pyneat.Node object at 0x7f8af51059e8 -->
<g id="edge23" class="edge">
<title>pyneat.Node object at 0x7f8af51059b0&#45;&gt;pyneat.Node object at 0x7f8af51059e8</title>
<path fill="none" stroke="#000000" d="M250.7307,-404.3371C279.4293,-393.2075 320.1307,-377.423 351.1534,-365.392"/>
<polygon fill="#000000" stroke="#000000" points="352.8002,-368.5074 360.8582,-361.6284 350.2692,-361.981 352.8002,-368.5074"/>
<text text-anchor="middle" x="306.5" y="-398.8" font-family="Times,serif" font-size="14.00" fill="#000000">0.060984</text>
</g>
<!-- pyneat.Node object at 0x7f8af5105a20 -->
<g id="node7" class="node">
<title>pyneat.Node object at 0x7f8af5105a20</title>
<ellipse fill="#2ca02c" stroke="#000000" cx="396" cy="-505" rx="27" ry="18"/>
</g>
<!-- pyneat.Node object at 0x7f8af51059b0&#45;&gt;pyneat.Node object at 0x7f8af5105a20 -->
<g id="edge24" class="edge">
<title>pyneat.Node object at 0x7f8af51059b0&#45;&gt;pyneat.Node object at 0x7f8af5105a20</title>
<path fill="none" stroke="#000000" d="M250.7307,-434.981C283.8305,-450.9349 332.8968,-474.5846 364.6651,-489.8968"/>
<polygon fill="#000000" stroke="#000000" points="363.4042,-493.1743 373.9321,-494.3634 366.4435,-486.8685 363.4042,-493.1743"/>
<text text-anchor="middle" x="306.5" y="-482.8" font-family="Times,serif" font-size="14.00" fill="#000000">0.977669</text>
</g>
<!-- pyneat.Node object at 0x7f8af51059b0&#45;&gt;pyneat.Node object at 0x7f8af5105b38 -->
<g id="edge25" class="edge">
<title>pyneat.Node object at 0x7f8af51059b0&#45;&gt;pyneat.Node object at 0x7f8af5105b38</title>
<path fill="none" stroke="#000000" d="M226.3762,-436.2866C234.8524,-451.4655 246.1354,-473.905 252,-495 262.7674,-533.7306 242.4021,-645.7706 270,-675 311.9364,-719.4157 752.1029,-756.2074 813,-761 845.3444,-763.5455 856.386,-774.2535 886,-761 902.3752,-753.6714 915.8605,-738.7214 925.3205,-725.4566"/>
<polygon fill="#000000" stroke="#000000" points="928.2763,-727.3331 930.9457,-717.08 922.465,-723.4305 928.2763,-727.3331"/>
<text text-anchor="middle" x="576.5" y="-744.8" font-family="Times,serif" font-size="14.00" fill="#000000">&#45;0.665176</text>
</g>
<!-- pyneat.Node object at 0x7f8af51059b0&#45;&gt;pyneat.Node object at 0x7f8af5105ba8 -->
<g id="edge26" class="edge">
<title>pyneat.Node object at 0x7f8af51059b0&#45;&gt;pyneat.Node object at 0x7f8af5105ba8</title>
<path fill="none" stroke="#000000" d="M225.0502,-399.8246C239.0436,-373.3525 264.101,-326.6079 270,-320 335.1325,-247.0399 355.8705,-221.8719 449,-192 614.5843,-138.8878 826.3113,-200.0661 907.1245,-227.7728"/>
<polygon fill="#000000" stroke="#000000" points="906.1665,-231.1454 916.7613,-231.1326 908.471,-224.5356 906.1665,-231.1454"/>
<text text-anchor="middle" x="576.5" y="-177.8" font-family="Times,serif" font-size="14.00" fill="#000000">0.447869</text>
</g>
<!-- pyneat.Node object at 0x7f8af5105be0 -->
<g id="node15" class="node">
<title>pyneat.Node object at 0x7f8af5105be0</title>
<ellipse fill="#2ca02c" stroke="#000000" cx="758.5" cy="-456" rx="27" ry="18"/>
</g>
<!-- pyneat.Node object at 0x7f8af51059b0&#45;&gt;pyneat.Node object at 0x7f8af5105be0 -->
<g id="edge27" class="edge">
<title>pyneat.Node object at 0x7f8af51059b0&#45;&gt;pyneat.Node object at 0x7f8af5105be0</title>
<path fill="none" stroke="#000000" d="M223.8187,-436.3113C232.8435,-454.3033 248.8434,-481.4045 270,-498 303.9709,-524.6473 318.513,-524.3221 361,-532 512.6001,-559.396 558.8235,-533.5453 704,-482 712.077,-479.1322 720.5536,-475.4444 728.3509,-471.7527"/>
<polygon fill="#000000" stroke="#000000" points="730.0061,-474.8394 737.4523,-467.3026 726.9313,-468.5509 730.0061,-474.8394"/>
<text text-anchor="middle" x="485.5" y="-546.8" font-family="Times,serif" font-size="14.00" fill="#000000">0.331495</text>
</g>
<!-- pyneat.Node object at 0x7f8af51059e8&#45;&gt;pyneat.Node object at 0x7f8af5105898 -->
<g id="edge28" class="edge">
<title>pyneat.Node object at 0x7f8af51059e8&#45;&gt;pyneat.Node object at 0x7f8af5105898</title>
<path fill="none" stroke="#000000" d="M412.9426,-329.867C438.2771,-303.7254 488.5785,-255.4713 540,-227 603.2331,-191.9888 777.2213,-127 849.5,-127 849.5,-127 849.5,-127 1120,-127 1239.8876,-127 1285.3124,-308.8278 1298.4953,-379.9555"/>
<polygon fill="#000000" stroke="#000000" points="1295.0833,-380.7599 1300.2764,-389.9947 1301.9757,-379.5371 1295.0833,-380.7599"/>
<text text-anchor="middle" x="849.5" y="-134.8" font-family="Times,serif" font-size="14.00" fill="#000000">1.0</text>
</g>
<!-- pyneat.Node object at 0x7f8af51059e8&#45;&gt;pyneat.Node object at 0x7f8af5105a58 -->
<g id="edge29" class="edge">
<title>pyneat.Node object at 0x7f8af51059e8&#45;&gt;pyneat.Node object at 0x7f8af5105a58</title>
<path fill="none" stroke="#000000" d="M401.8585,-366.3133C409.6374,-391.3 423.2886,-437.5926 431,-478 437.583,-512.4949 426.6502,-607.9127 449,-635 470.6493,-661.2382 490.1641,-646.0162 522,-658 529.3838,-660.7795 537.2084,-664.0345 544.5549,-667.2346"/>
<polygon fill="#000000" stroke="#000000" points="543.6302,-670.6536 554.19,-671.5145 546.4719,-664.2563 543.6302,-670.6536"/>
<text text-anchor="middle" x="485.5" y="-661.8" font-family="Times,serif" font-size="14.00" fill="#000000">0.9774</text>
</g>
<!-- pyneat.Node object at 0x7f8af51059e8&#45;&gt;pyneat.Node object at 0x7f8af5105ac8 -->
<g id="edge30" class="edge">
<title>pyneat.Node object at 0x7f8af51059e8&#45;&gt;pyneat.Node object at 0x7f8af5105ac8</title>
<path fill="none" stroke="#000000" d="M431.0871,-346.9862C456.3952,-346.5698 491.3554,-346.6406 522,-349 527.9251,-349.4562 534.1849,-350.1623 540.2678,-350.9701"/>
<polygon fill="#000000" stroke="#000000" points="539.8524,-354.4462 550.2477,-352.3994 540.8449,-347.5169 539.8524,-354.4462"/>
<text text-anchor="middle" x="485.5" y="-352.8" font-family="Times,serif" font-size="14.00" fill="#000000">0.858873</text>
</g>
<!-- pyneat.Node object at 0x7f8af5105b00 -->
<g id="node11" class="node">
<title>pyneat.Node object at 0x7f8af5105b00</title>
<ellipse fill="#2ca02c" stroke="#000000" cx="758.5" cy="-402" rx="27" ry="18"/>
</g>
<!-- pyneat.Node object at 0x7f8af51059e8&#45;&gt;pyneat.Node object at 0x7f8af5105b00 -->
<g id="edge31" class="edge">
<title>pyneat.Node object at 0x7f8af51059e8&#45;&gt;pyneat.Node object at 0x7f8af5105b00</title>
<path fill="none" stroke="#000000" d="M431.3591,-335.8522C474.3331,-322.6513 549.038,-304.7287 613,-315 655.0469,-321.7521 667.9902,-322.2662 704,-345 717.6946,-353.6457 730.3696,-366.4715 740.0434,-377.7684"/>
<polygon fill="#000000" stroke="#000000" points="737.4695,-380.1487 746.5287,-385.6425 742.8728,-375.6984 737.4695,-380.1487"/>
<text text-anchor="middle" x="576.5" y="-318.8" font-family="Times,serif" font-size="14.00" fill="#000000">&#45;0.633608</text>
</g>
<!-- pyneat.Node object at 0x7f8af5105b70 -->
<g id="node13" class="node">
<title>pyneat.Node object at 0x7f8af5105b70</title>
<ellipse fill="#2ca02c" stroke="#000000" cx="1120" cy="-649" rx="27" ry="18"/>
</g>
<!-- pyneat.Node object at 0x7f8af51059e8&#45;&gt;pyneat.Node object at 0x7f8af5105b70 -->
<g id="edge32" class="edge">
<title>pyneat.Node object at 0x7f8af51059e8&#45;&gt;pyneat.Node object at 0x7f8af5105b70</title>
<path fill="none" stroke="#000000" d="M409.1948,-366.1217C419.0405,-378.6314 433.4318,-394.9408 449,-406 484.8724,-431.4827 498.2527,-431.0945 540,-445 615.0676,-470.0041 814.1408,-495.8849 886,-529 894.9624,-533.1302 895.5497,-536.9034 904,-542 966.835,-579.8971 1044.9265,-616.0772 1087.8977,-635.1138"/>
<polygon fill="#000000" stroke="#000000" points="1086.7137,-638.4167 1097.2763,-639.243 1089.5344,-632.0101 1086.7137,-638.4167"/>
<text text-anchor="middle" x="758.5" y="-503.8" font-family="Times,serif" font-size="14.00" fill="#000000">0.469141</text>
</g>
<!-- pyneat.Node object at 0x7f8af5105a20&#45;&gt;pyneat.Node object at 0x7f8af5105898 -->
<g id="edge33" class="edge">
<title>pyneat.Node object at 0x7f8af5105a20&#45;&gt;pyneat.Node object at 0x7f8af5105898</title>
<path fill="none" stroke="#000000" d="M398.373,-523.1449C403.3395,-556.0317 417.1232,-626.73 449,-677 478.3148,-723.2297 489.8146,-738.1376 540,-760 718.479,-837.7514 783.4585,-811.0175 977,-790 1101.6353,-776.4653 1167.4844,-800.5316 1245,-702 1277.528,-660.653 1294.8597,-501.147 1300.7044,-435.9794"/>
<polygon fill="#000000" stroke="#000000" points="1304.1917,-436.2759 1301.5744,-426.0095 1297.2182,-435.6673 1304.1917,-436.2759"/>
<text text-anchor="middle" x="849.5" y="-812.8" font-family="Times,serif" font-size="14.00" fill="#000000">1.0</text>
</g>
<!-- pyneat.Node object at 0x7f8af5105a20&#45;&gt;pyneat.Node object at 0x7f8af5105ac8 -->
<g id="edge34" class="edge">
<title>pyneat.Node object at 0x7f8af5105a20&#45;&gt;pyneat.Node object at 0x7f8af5105ac8</title>
<path fill="none" stroke="#000000" d="M398.9958,-486.7776C404.2845,-460.6129 417.82,-412.7272 449,-387 462.6904,-375.7038 507.094,-367.029 539.6631,-361.9789"/>
<polygon fill="#000000" stroke="#000000" points="540.3953,-365.4084 549.7677,-360.4679 539.36,-358.4854 540.3953,-365.4084"/>
<text text-anchor="middle" x="485.5" y="-390.8" font-family="Times,serif" font-size="14.00" fill="#000000">0.758962</text>
</g>
<!-- pyneat.Node object at 0x7f8af5105a20&#45;&gt;pyneat.Node object at 0x7f8af5105b00 -->
<g id="edge35" class="edge">
<title>pyneat.Node object at 0x7f8af5105a20&#45;&gt;pyneat.Node object at 0x7f8af5105b00</title>
<path fill="none" stroke="#000000" d="M419.0522,-495.3501C428.2936,-491.6173 439.0846,-487.4278 449,-484 546.138,-450.4194 664.4117,-422.5706 722.6173,-409.6915"/>
<polygon fill="#000000" stroke="#000000" points="723.4179,-413.0992 732.4343,-407.5356 721.9163,-406.2621 723.4179,-413.0992"/>
<text text-anchor="middle" x="576.5" y="-457.8" font-family="Times,serif" font-size="14.00" fill="#000000">0.975843</text>
</g>
<!-- pyneat.Node object at 0x7f8af5105a20&#45;&gt;pyneat.Node object at 0x7f8af5105b70 -->
<g id="edge36" class="edge">
<title>pyneat.Node object at 0x7f8af5105a20&#45;&gt;pyneat.Node object at 0x7f8af5105b70</title>
<path fill="none" stroke="#000000" d="M420.4473,-513.0364C462.8849,-526.7455 553.112,-554.8312 631,-572 798.2379,-608.8641 1001.4002,-634.9921 1083.2354,-644.7625"/>
<polygon fill="#000000" stroke="#000000" points="1082.9418,-648.2521 1093.2841,-645.9525 1083.7651,-641.3006 1082.9418,-648.2521"/>
<text text-anchor="middle" x="758.5" y="-606.8" font-family="Times,serif" font-size="14.00" fill="#000000">&#45;0.583756</text>
</g>
<!-- pyneat.Node object at 0x7f8af5105a20&#45;&gt;pyneat.Node object at 0x7f8af5105be0 -->
<g id="edge37" class="edge">
<title>pyneat.Node object at 0x7f8af5105a20&#45;&gt;pyneat.Node object at 0x7f8af5105be0</title>
<path fill="none" stroke="#000000" d="M422.6555,-501.3969C486.5504,-492.7601 648.5541,-470.8617 721.683,-460.9766"/>
<polygon fill="#000000" stroke="#000000" points="722.3644,-464.4165 731.8054,-459.6084 721.4267,-457.4795 722.3644,-464.4165"/>
<text text-anchor="middle" x="576.5" y="-488.8" font-family="Times,serif" font-size="14.00" fill="#000000">0.100768</text>
</g>
<!-- pyneat.Node object at 0x7f8af5105a58&#45;&gt;pyneat.Node object at 0x7f8af5105898 -->
<g id="edge38" class="edge">
<title>pyneat.Node object at 0x7f8af5105a58&#45;&gt;pyneat.Node object at 0x7f8af5105898</title>
<path fill="none" stroke="#000000" d="M589.6463,-697.9626C599.7835,-709.2023 614.7776,-723.6758 631,-732 667.7596,-750.8625 681.1957,-744.5137 722,-751 912.1387,-781.2247 973.1165,-784.9351 1154,-719 1198.3998,-702.8155 1217.3506,-702.3249 1245,-664 1271.3553,-627.469 1291.5942,-494.6902 1299.446,-436.1037"/>
<polygon fill="#000000" stroke="#000000" points="1302.932,-436.4389 1300.7667,-426.0677 1295.9919,-435.5255 1302.932,-436.4389"/>
<text text-anchor="middle" x="940.5" y="-774.8" font-family="Times,serif" font-size="14.00" fill="#000000">&#45;0.169775</text>
</g>
<!-- pyneat.Node object at 0x7f8af5105a58&#45;&gt;pyneat.Node object at 0x7f8af5105a90 -->
<g id="edge39" class="edge">
<title>pyneat.Node object at 0x7f8af5105a58&#45;&gt;pyneat.Node object at 0x7f8af5105a90</title>
<path fill="none" stroke="#000000" d="M603.3547,-678.4587C634.6285,-674.3347 686.4676,-667.4988 721.5301,-662.8752"/>
<polygon fill="#000000" stroke="#000000" points="722.375,-666.2941 731.8316,-661.5167 721.4598,-659.3542 722.375,-666.2941"/>
<text text-anchor="middle" x="667.5" y="-677.8" font-family="Times,serif" font-size="14.00" fill="#000000">0.342485</text>
</g>
<!-- pyneat.Node object at 0x7f8af5105a58&#45;&gt;pyneat.Node object at 0x7f8af5105b00 -->
<g id="edge40" class="edge">
<title>pyneat.Node object at 0x7f8af5105a58&#45;&gt;pyneat.Node object at 0x7f8af5105b00</title>
<path fill="none" stroke="#000000" d="M582.776,-664.3193C591.9187,-639.4149 610.1052,-592.9214 631,-556 665.2003,-495.5676 673.2729,-478.4712 722,-429 724.7828,-426.1747 727.8817,-423.417 731.0648,-420.8095"/>
<polygon fill="#000000" stroke="#000000" points="733.2313,-423.5587 739.0189,-414.6844 728.9604,-418.0126 733.2313,-423.5587"/>
<text text-anchor="middle" x="667.5" y="-559.8" font-family="Times,serif" font-size="14.00" fill="#000000">0.52085</text>
</g>
<!-- pyneat.Node object at 0x7f8af5105a58&#45;&gt;pyneat.Node object at 0x7f8af5105b38 -->
<g id="edge41" class="edge">
<title>pyneat.Node object at 0x7f8af5105a58&#45;&gt;pyneat.Node object at 0x7f8af5105b38</title>
<path fill="none" stroke="#000000" d="M602.1389,-688.118C611.2035,-690.0296 621.5052,-691.9195 631,-693 728.7804,-704.1274 845.0203,-702.9182 903.2909,-701.3272"/>
<polygon fill="#000000" stroke="#000000" points="903.5861,-704.8202 913.4792,-701.0286 903.3809,-697.8232 903.5861,-704.8202"/>
<text text-anchor="middle" x="758.5" y="-705.8" font-family="Times,serif" font-size="14.00" fill="#000000">0.775403</text>
</g>
<!-- pyneat.Node object at 0x7f8af5105a58&#45;&gt;pyneat.Node object at 0x7f8af5105b70 -->
<g id="edge42" class="edge">
<title>pyneat.Node object at 0x7f8af5105a58&#45;&gt;pyneat.Node object at 0x7f8af5105b70</title>
<path fill="none" stroke="#000000" d="M596.801,-694.0534C606.7818,-699.4528 619.1813,-705.4017 631,-709 778.3096,-753.8495 824.3958,-747.5808 977,-727 1018.5666,-721.3941 1032.5786,-724.4619 1068,-702 1078.3814,-695.4168 1077.5121,-689.8919 1086,-681 1089.2358,-677.6102 1092.7441,-674.1195 1096.2368,-670.7463"/>
<polygon fill="#000000" stroke="#000000" points="1098.8922,-673.0519 1103.746,-663.6343 1094.0787,-667.9695 1098.8922,-673.0519"/>
<text text-anchor="middle" x="849.5" y="-745.8" font-family="Times,serif" font-size="14.00" fill="#000000">&#45;0.746857</text>
</g>
<!-- pyneat.Node object at 0x7f8af5105a58&#45;&gt;pyneat.Node object at 0x7f8af5105be0 -->
<g id="edge43" class="edge">
<title>pyneat.Node object at 0x7f8af5105a58&#45;&gt;pyneat.Node object at 0x7f8af5105be0</title>
<path fill="none" stroke="#000000" d="M588.5521,-665.7791C598.897,-652.517 614.6823,-633.7736 631,-620 660.125,-595.4159 682.1286,-606.2135 704,-575 726.6588,-542.6628 702.1237,-522.1181 722,-488 724.5188,-483.6765 727.8326,-479.6371 731.4372,-475.9827"/>
<polygon fill="#000000" stroke="#000000" points="734.023,-478.3628 739.083,-469.0543 729.3226,-473.1756 734.023,-478.3628"/>
<text text-anchor="middle" x="667.5" y="-623.8" font-family="Times,serif" font-size="14.00" fill="#000000">0.347292</text>
</g>
<!-- pyneat.Node object at 0x7f8af5105a58&#45;&gt;pyneat.Node object at 0x7f8af5105c18 -->
<g id="edge44" class="edge">
<title>pyneat.Node object at 0x7f8af5105a58&#45;&gt;pyneat.Node object at 0x7f8af5105c18</title>
<path fill="none" stroke="#000000" d="M600.3436,-673.5108C636.7288,-660.5146 702.1273,-636.9732 704,-635 722.5802,-615.4227 703.3314,-596.493 722,-577 778.4938,-518.0113 1009.1286,-509.616 1068,-453 1096.3668,-425.72 1109.691,-380.8881 1115.6286,-351.9109"/>
<polygon fill="#000000" stroke="#000000" points="1119.0811,-352.4899 1117.4961,-342.0143 1112.2025,-351.1918 1119.0811,-352.4899"/>
<text text-anchor="middle" x="849.5" y="-537.8" font-family="Times,serif" font-size="14.00" fill="#000000">0.87676</text>
</g>
<!-- pyneat.Node object at 0x7f8af5105a90&#45;&gt;pyneat.Node object at 0x7f8af5105898 -->
<g id="edge45" class="edge">
<title>pyneat.Node object at 0x7f8af5105a90&#45;&gt;pyneat.Node object at 0x7f8af5105898</title>
<path fill="none" stroke="#000000" d="M780.8602,-647.7336C861.8332,-610.5559 1140.9241,-482.415 1254.4229,-430.3035"/>
<polygon fill="#000000" stroke="#000000" points="1255.967,-433.4459 1263.5944,-426.0925 1253.0461,-427.0844 1255.967,-433.4459"/>
<text text-anchor="middle" x="1031.5" y="-550.8" font-family="Times,serif" font-size="14.00" fill="#000000">&#45;0.805349</text>
</g>
<!-- pyneat.Node object at 0x7f8af5105a90&#45;&gt;pyneat.Node object at 0x7f8af5105b38 -->
<g id="edge46" class="edge">
<title>pyneat.Node object at 0x7f8af5105a90&#45;&gt;pyneat.Node object at 0x7f8af5105b38</title>
<path fill="none" stroke="#000000" d="M785.059,-662.3399C810.9806,-666.7792 851.4504,-674.2519 886,-683 892.7137,-684.6999 899.8228,-686.7384 906.6111,-688.804"/>
<polygon fill="#000000" stroke="#000000" points="905.6553,-692.1721 916.244,-691.8133 907.7427,-685.4906 905.6553,-692.1721"/>
<text text-anchor="middle" x="849.5" y="-686.8" font-family="Times,serif" font-size="14.00" fill="#000000">0.25639</text>
</g>
<!-- pyneat.Node object at 0x7f8af5105a90&#45;&gt;pyneat.Node object at 0x7f8af5105b70 -->
<g id="edge47" class="edge">
<title>pyneat.Node object at 0x7f8af5105a90&#45;&gt;pyneat.Node object at 0x7f8af5105b70</title>
<path fill="none" stroke="#000000" d="M785.6713,-657.3235C849.6815,-655.7299 1010.0309,-651.7378 1082.9104,-649.9234"/>
<polygon fill="#000000" stroke="#000000" points="1083.0968,-653.4199 1093.0066,-649.672 1082.9225,-646.4221 1083.0968,-653.4199"/>
<text text-anchor="middle" x="940.5" y="-657.8" font-family="Times,serif" font-size="14.00" fill="#000000">&#45;0.365377</text>
</g>
<!-- pyneat.Node object at 0x7f8af5105ac8&#45;&gt;pyneat.Node object at 0x7f8af5105898 -->
<g id="edge48" class="edge">
<title>pyneat.Node object at 0x7f8af5105ac8&#45;&gt;pyneat.Node object at 0x7f8af5105898</title>
<path fill="none" stroke="#000000" d="M597.2768,-345.3734C658.671,-311.2672 839.015,-212.9411 904,-198 935.6195,-190.7302 944.8509,-193.6321 977,-198 1099.5614,-214.6516 1152.1462,-191.2886 1245,-273 1276.6909,-300.888 1291.6466,-349.1345 1298.2605,-379.7644"/>
<polygon fill="#000000" stroke="#000000" points="1294.8744,-380.6812 1300.2658,-389.8017 1301.7388,-379.3098 1294.8744,-380.6812"/>
<text text-anchor="middle" x="940.5" y="-201.8" font-family="Times,serif" font-size="14.00" fill="#000000">0.29361</text>
</g>
<!-- pyneat.Node object at 0x7f8af5105ac8&#45;&gt;pyneat.Node object at 0x7f8af5105b00 -->
<g id="edge49" class="edge">
<title>pyneat.Node object at 0x7f8af5105ac8&#45;&gt;pyneat.Node object at 0x7f8af5105b00</title>
<path fill="none" stroke="#000000" d="M602.7729,-352.2839C629.184,-348.6627 670.6515,-346.0711 704,-358 716.3446,-362.4157 727.9577,-370.916 737.266,-379.2774"/>
<polygon fill="#000000" stroke="#000000" points="734.8533,-381.8129 744.5083,-386.1755 739.6811,-376.7442 734.8533,-381.8129"/>
<text text-anchor="middle" x="667.5" y="-361.8" font-family="Times,serif" font-size="14.00" fill="#000000">&#45;0.019246</text>
</g>
<!-- pyneat.Node object at 0x7f8af5105ac8&#45;&gt;pyneat.Node object at 0x7f8af5105be0 -->
<g id="edge50" class="edge">
<title>pyneat.Node object at 0x7f8af5105ac8&#45;&gt;pyneat.Node object at 0x7f8af5105be0</title>
<path fill="none" stroke="#000000" d="M597.7339,-368.5503C630.0636,-386.1363 691.754,-419.6931 728.6016,-439.7366"/>
<polygon fill="#000000" stroke="#000000" points="726.9444,-442.8194 737.4013,-444.5233 730.2893,-436.6703 726.9444,-442.8194"/>
<text text-anchor="middle" x="667.5" y="-426.8" font-family="Times,serif" font-size="14.00" fill="#000000">0.453397</text>
</g>
<!-- pyneat.Node object at 0x7f8af5105ac8&#45;&gt;pyneat.Node object at 0x7f8af5105c18 -->
<g id="edge51" class="edge">
<title>pyneat.Node object at 0x7f8af5105ac8&#45;&gt;pyneat.Node object at 0x7f8af5105c18</title>
<path fill="none" stroke="#000000" d="M601.8465,-350.4599C610.9755,-348.3597 621.3931,-346.2542 631,-345 798.4957,-323.1324 1000.7186,-322.5633 1082.742,-323.4012"/>
<polygon fill="#000000" stroke="#000000" points="1082.7823,-326.9018 1092.8221,-323.5178 1082.8633,-319.9022 1082.7823,-326.9018"/>
<text text-anchor="middle" x="849.5" y="-331.8" font-family="Times,serif" font-size="14.00" fill="#000000">0.722845</text>
</g>
<!-- pyneat.Node object at 0x7f8af5105b00&#45;&gt;pyneat.Node object at 0x7f8af5105898 -->
<g id="edge52" class="edge">
<title>pyneat.Node object at 0x7f8af5105b00&#45;&gt;pyneat.Node object at 0x7f8af5105898</title>
<path fill="none" stroke="#000000" d="M784.6233,-397.1453C828.0852,-389.3413 918.0755,-374.341 995,-369 1106.3971,-361.2656 1135.3144,-373.0666 1245,-394 1247.628,-394.5016 1250.3161,-395.0444 1253.0254,-395.6151"/>
<polygon fill="#000000" stroke="#000000" points="1252.3408,-399.0482 1262.8595,-397.7796 1253.8456,-392.2118 1252.3408,-399.0482"/>
<text text-anchor="middle" x="1031.5" y="-372.8" font-family="Times,serif" font-size="14.00" fill="#000000">1.0</text>
</g>
<!-- pyneat.Node object at 0x7f8af5105b00&#45;&gt;pyneat.Node object at 0x7f8af5105b70 -->
<g id="edge53" class="edge">
<title>pyneat.Node object at 0x7f8af5105b00&#45;&gt;pyneat.Node object at 0x7f8af5105b70</title>
<path fill="none" stroke="#000000" d="M778.5768,-414.2623C818.7641,-438.5296 912.3354,-493.6444 995,-532 1026.5214,-546.6256 1041.5152,-537.5041 1068,-560 1087.4856,-576.5509 1101.4173,-602.3463 1109.9256,-621.9138"/>
<polygon fill="#000000" stroke="#000000" points="1106.7193,-623.3193 1113.7742,-631.2237 1113.1883,-620.6451 1106.7193,-623.3193"/>
<text text-anchor="middle" x="940.5" y="-526.8" font-family="Times,serif" font-size="14.00" fill="#000000">0.021861</text>
</g>
<!-- pyneat.Node object at 0x7f8af5105b00&#45;&gt;pyneat.Node object at 0x7f8af5105ba8 -->
<g id="edge54" class="edge">
<title>pyneat.Node object at 0x7f8af5105b00&#45;&gt;pyneat.Node object at 0x7f8af5105ba8</title>
<path fill="none" stroke="#000000" d="M762.5123,-383.8687C768.9655,-358.7695 783.9769,-313.5382 813,-287 838.3185,-263.8493 876.0148,-251.8341 903.8565,-245.7736"/>
<polygon fill="#000000" stroke="#000000" points="904.8859,-249.1367 913.9983,-243.7316 903.5042,-242.2744 904.8859,-249.1367"/>
<text text-anchor="middle" x="849.5" y="-290.8" font-family="Times,serif" font-size="14.00" fill="#000000">&#45;0.173657</text>
</g>
<!-- pyneat.Node object at 0x7f8af5105b38&#45;&gt;pyneat.Node object at 0x7f8af5105898 -->
<g id="edge55" class="edge">
<title>pyneat.Node object at 0x7f8af5105b38&#45;&gt;pyneat.Node object at 0x7f8af5105898</title>
<path fill="none" stroke="#000000" d="M967.3993,-702.9152C1028.6545,-707.8611 1178.3694,-710.0234 1245,-623 1267.5457,-593.5541 1288.8739,-487.4903 1298.1468,-436.1858"/>
<polygon fill="#000000" stroke="#000000" points="1301.6325,-436.575 1299.9387,-426.1165 1294.7407,-435.3486 1301.6325,-436.575"/>
<text text-anchor="middle" x="1120" y="-703.8" font-family="Times,serif" font-size="14.00" fill="#000000">0.779163</text>
</g>
<!-- pyneat.Node object at 0x7f8af5105b38&#45;&gt;pyneat.Node object at 0x7f8af5105b70 -->
<g id="edge56" class="edge">
<title>pyneat.Node object at 0x7f8af5105b38&#45;&gt;pyneat.Node object at 0x7f8af5105b70</title>
<path fill="none" stroke="#000000" d="M964.8591,-692.1917C974.255,-689.2351 985.1049,-685.8879 995,-683 1025.17,-674.1947 1059.65,-664.8711 1084.7441,-658.219"/>
<polygon fill="#000000" stroke="#000000" points="1085.7715,-661.5677 1094.546,-655.6299 1083.9838,-654.7998 1085.7715,-661.5677"/>
<text text-anchor="middle" x="1031.5" y="-686.8" font-family="Times,serif" font-size="14.00" fill="#000000">&#45;0.671628</text>
</g>
<!-- pyneat.Node object at 0x7f8af5105b70&#45;&gt;pyneat.Node object at 0x7f8af5105898 -->
<g id="edge57" class="edge">
<title>pyneat.Node object at 0x7f8af5105b70&#45;&gt;pyneat.Node object at 0x7f8af5105898</title>
<path fill="none" stroke="#000000" d="M1138.1439,-635.3119C1164.4166,-614.7658 1213.3615,-573.6783 1245,-530 1266.4974,-500.3219 1283.3604,-461.4206 1293.2373,-435.6126"/>
<polygon fill="#000000" stroke="#000000" points="1296.5777,-436.672 1296.7958,-426.0794 1290.0196,-434.2241 1296.5777,-436.672"/>
<text text-anchor="middle" x="1208.5" y="-607.8" font-family="Times,serif" font-size="14.00" fill="#000000">&#45;0.814881</text>
</g>
<!-- pyneat.Node object at 0x7f8af5105ba8&#45;&gt;pyneat.Node object at 0x7f8af5105898 -->
<g id="edge58" class="edge">
<title>pyneat.Node object at 0x7f8af5105ba8&#45;&gt;pyneat.Node object at 0x7f8af5105898</title>
<path fill="none" stroke="#000000" d="M967.8867,-239.6425C1025.6975,-240.3148 1161.7066,-249.601 1245,-318 1265.4934,-334.8288 1281.1576,-360.8495 1291.0108,-380.5918"/>
<polygon fill="#000000" stroke="#000000" points="1287.9018,-382.2031 1295.3768,-389.7114 1294.2155,-379.1804 1287.9018,-382.2031"/>
<text text-anchor="middle" x="1120" y="-270.8" font-family="Times,serif" font-size="14.00" fill="#000000">0.944986</text>
</g>
<!-- pyneat.Node object at 0x7f8af5105ba8&#45;&gt;pyneat.Node object at 0x7f8af5105c18 -->
<g id="edge59" class="edge">
<title>pyneat.Node object at 0x7f8af5105ba8&#45;&gt;pyneat.Node object at 0x7f8af5105c18</title>
<path fill="none" stroke="#000000" d="M966.9172,-244.146C999.0158,-249.5025 1050.9944,-259.2962 1068,-269 1081.2786,-276.577 1093.2279,-288.6268 1102.3137,-299.5189"/>
<polygon fill="#000000" stroke="#000000" points="1099.7168,-301.8769 1108.678,-307.5292 1105.1976,-297.5223 1099.7168,-301.8769"/>
<text text-anchor="middle" x="1031.5" y="-272.8" font-family="Times,serif" font-size="14.00" fill="#000000">0.137982</text>
</g>
<!-- pyneat.Node object at 0x7f8af5105be0&#45;&gt;pyneat.Node object at 0x7f8af5105898 -->
<g id="edge60" class="edge">
<title>pyneat.Node object at 0x7f8af5105be0&#45;&gt;pyneat.Node object at 0x7f8af5105898</title>
<path fill="none" stroke="#000000" d="M785.5018,-453.6197C871.5476,-446.0344 1140.2253,-422.3493 1252.6957,-412.4345"/>
<polygon fill="#000000" stroke="#000000" points="1253.1081,-415.9118 1262.7621,-411.5471 1252.4934,-408.9389 1253.1081,-415.9118"/>
<text text-anchor="middle" x="1031.5" y="-437.8" font-family="Times,serif" font-size="14.00" fill="#000000">0.694988</text>
</g>
<!-- pyneat.Node object at 0x7f8af5105c18&#45;&gt;pyneat.Node object at 0x7f8af5105898 -->
<g id="edge61" class="edge">
<title>pyneat.Node object at 0x7f8af5105c18&#45;&gt;pyneat.Node object at 0x7f8af5105898</title>
<path fill="none" stroke="#000000" d="M1147.0493,-322.3316C1173.574,-321.878 1214.3772,-324.4206 1245,-341 1262.2541,-350.3415 1276.7113,-367.0033 1286.8762,-381.3735"/>
<polygon fill="#000000" stroke="#000000" points="1284.152,-383.5946 1292.6373,-389.939 1289.9605,-379.6879 1284.152,-383.5946"/>
<text text-anchor="middle" x="1208.5" y="-344.8" font-family="Times,serif" font-size="14.00" fill="#000000">1.0</text>
</g>
</g>
</svg>
